<svg xmlns="http://www.w3.org/2000/svg" viewBox="0 0 1200 320" role="img" aria-labelledby="title desc">
  <title id="title">RGB Explorer Logo</title>
  <desc id="desc">A modern RGB Explorer logo with an icon and wordmark.</desc>

  <defs>
    <linearGradient id="bgGrad" x1="0" y1="0" x2="1" y2="1">
      <stop offset="0%" stop-color="#0E111A"/>
      <stop offset="100%" stop-color="#171D2A"/>
    </linearGradient>

    <linearGradient id="rGrad" x1="0" y1="0" x2="1" y2="1">
      <stop offset="0%" stop-color="#FF6A6A"/>
      <stop offset="100%" stop-color="#E13636"/>
    </linearGradient>

    <linearGradient id="gGrad" x1="0" y1="0" x2="1" y2="1">
      <stop offset="0%" stop-color="#6EE88D"/>
      <stop offset="100%" stop-color="#1FBF5D"/>
    </linearGradient>

    <linearGradient id="bGrad" x1="0" y1="0" x2="1" y2="1">
      <stop offset="0%" stop-color="#76B7FF"/>
      <stop offset="100%" stop-color="#2C7BFF"/>
    </linearGradient>

    <filter id="softGlow" x="-40%" y="-40%" width="180%" height="180%">
      <feGaussianBlur stdDeviation="8" result="blur"/>
      <feMerge>
        <feMergeNode in="blur"/>
        <feMergeNode in="SourceGraphic"/>
      </feMerge>
    </filter>
  </defs>

  <rect x="0" y="0" width="1200" height="320" fill="url(#bgGrad)"/>

  <g transform="translate(48 40)">
    <rect x="0" y="0" width="240" height="240" rx="44" fill="#0B1020" stroke="#2B344B" stroke-width="4"/>

    <g opacity="0.9">
      <line x1="40" y1="72" x2="200" y2="72" stroke="#2B344B" stroke-width="3"/>
      <line x1="40" y1="120" x2="200" y2="120" stroke="#2B344B" stroke-width="3"/>
      <line x1="40" y1="168" x2="200" y2="168" stroke="#2B344B" stroke-width="3"/>
    </g>

    <circle cx="86" cy="72" r="17" fill="url(#rGrad)" filter="url(#softGlow)"/>
    <circle cx="154" cy="120" r="17" fill="url(#gGrad)" filter="url(#softGlow)"/>
    <circle cx="118" cy="168" r="17" fill="url(#bGrad)" filter="url(#softGlow)"/>

    <path d="M86 72 L154 120 L118 168" fill="none" stroke="#D6DEFF" stroke-opacity="0.55" stroke-width="4" stroke-linecap="round"/>

    <rect x="208" y="58" width="12" height="28" rx="6" fill="url(#rGrad)"/>
    <rect x="208" y="106" width="12" height="28" rx="6" fill="url(#gGrad)"/>
    <rect x="208" y="154" width="12" height="28" rx="6" fill="url(#bGrad)"/>
  </g>

  <g transform="translate(328 0)">
    <text x="0" y="154" font-family="Poppins, Montserrat, Segoe UI, Arial, sans-serif" font-size="88" font-weight="700" fill="#F5F8FF" letter-spacing="1">RGB</text>
    <text x="0" y="236" font-family="Poppins, Montserrat, Segoe UI, Arial, sans-serif" font-size="76" font-weight="500" fill="#A9B7DE" letter-spacing="0.5">Explorer</text>

    <rect x="506" y="112" width="14" height="14" rx="7" fill="url(#rGrad)"/>
    <rect x="530" y="112" width="14" height="14" rx="7" fill="url(#gGrad)"/>
    <rect x="554" y="112" width="14" height="14" rx="7" fill="url(#bGrad)"/>
  </g>
</svg>
