<?plantuml 1.2026.2?><svg xmlns="http://www.w3.org/2000/svg" xmlns:xlink="http://www.w3.org/1999/xlink" contentStyleType="text/css" data-diagram-type="STATE" height="2231px" preserveAspectRatio="none" style="width:1811px;height:2231px;background:#FFFFFF;" version="1.1" viewBox="0 0 1811 2231" width="1811px" zoomAndPan="magnify"><defs/><g><rect fill="#ECEFF1" height="40" rx="12.5" ry="12.5" style="stroke:#2F3B52;stroke-width:0.5;" width="50" x="1240" y="105"/><text fill="#000000" font-family="Arial" font-size="14" lengthAdjust="spacing" textLength="35.0137" x="1247.4932" y="130.0825">inicial</text><rect fill="#ECEFF1" height="40" rx="12.5" ry="12.5" style="stroke:#2F3B52;stroke-width:0.5;" width="97.165" x="1216.42" y="206"/><text fill="#000000" font-family="Arial" font-size="14" lengthAdjust="spacing" textLength="87.165" x="1221.42" y="231.0825">selecao modo</text><rect fill="#ECEFF1" height="40" rx="12.5" ry="12.5" style="stroke:#2F3B52;stroke-width:0.5;" width="95.5928" x="1246.2" y="325"/><text fill="#000000" font-family="Arial" font-size="14" lengthAdjust="spacing" textLength="85.5928" x="1251.2" y="350.0825">registra modo</text><rect fill="#E3F2FD" height="40" rx="12.5" ry="12.5" style="stroke:#2F3B52;stroke-width:0.5;" width="110.4063" x="448.8" y="444"/><text fill="#000000" font-family="Arial" font-size="14" lengthAdjust="spacing" textLength="100.4063" x="453.8" y="469.0825">reset pontuacao</text><rect fill="#E3F2FD" height="40" rx="12.5" ry="12.5" style="stroke:#2F3B52;stroke-width:0.5;" width="109.5928" x="320.2" y="1642"/><text fill="#000000" font-family="Arial" font-size="14" lengthAdjust="spacing" textLength="99.5928" x="325.2" y="1667.0825">registra cor alvo</text><rect fill="#FFF3E0" height="40" rx="12.5" ry="12.5" style="stroke:#2F3B52;stroke-width:0.5;" width="102.6064" x="264.7" y="1846"/><text fill="#000000" font-family="Arial" font-size="14" lengthAdjust="spacing" textLength="92.6064" x="269.7" y="1871.0825">espera timeout</text><rect fill="#ECEFF1" height="40" rx="12.5" ry="12.5" style="stroke:#2F3B52;stroke-width:0.5;" width="91.7305" x="554.13" y="1965"/><text fill="#000000" font-family="Arial" font-size="14" lengthAdjust="spacing" textLength="81.7305" x="559.13" y="1990.0825">espera botao</text><rect fill="#ECEFF1" height="40" rx="12.5" ry="12.5" style="stroke:#2F3B52;stroke-width:0.5;" width="129.834" x="476.08" y="2084"/><text fill="#000000" font-family="Arial" font-size="14" lengthAdjust="spacing" textLength="119.834" x="481.08" y="2109.0825">registra botao RGB</text><rect fill="#ECEFF1" height="40" rx="12.5" ry="12.5" style="stroke:#2F3B52;stroke-width:0.5;" width="110.3721" x="544.81" y="2185"/><text fill="#000000" font-family="Arial" font-size="14" lengthAdjust="spacing" textLength="100.3721" x="549.81" y="2210.0825">muda LED RGB</text><rect fill="#ECEFF1" height="40" rx="12.5" ry="12.5" style="stroke:#2F3B52;stroke-width:0.5;" width="87.8066" x="603.1" y="1319"/><text fill="#000000" font-family="Arial" font-size="14" lengthAdjust="spacing" textLength="77.8066" x="608.1" y="1344.0825">compara cor</text><rect fill="#FCE4EC" height="40" rx="12.5" ry="12.5" style="stroke:#2F3B52;stroke-width:0.5;" width="66.7998" x="227.6" y="1109"/><text fill="#000000" font-family="Arial" font-size="14" lengthAdjust="spacing" textLength="56.7998" x="232.6" y="1134.0825">fim exato</text><rect fill="#FCE4EC" height="40" rx="12.5" ry="12.5" style="stroke:#2F3B52;stroke-width:0.5;" width="64.4619" x="438.77" y="1438"/><text fill="#000000" font-family="Arial" font-size="14" lengthAdjust="spacing" textLength="54.4619" x="443.77" y="1463.0825">fim perto</text><rect fill="#FCE4EC" height="40" rx="12.5" ry="12.5" style="stroke:#2F3B52;stroke-width:0.5;" width="66.8066" x="334.6" y="1249"/><text fill="#000000" font-family="Arial" font-size="14" lengthAdjust="spacing" textLength="56.8066" x="339.6" y="1274.0825">fim longe</text><rect fill="#FCE4EC" height="40" rx="12.5" ry="12.5" style="stroke:#2F3B52;stroke-width:0.5;" width="75.3584" x="187.32" y="325"/><text fill="#000000" font-family="Arial" font-size="14" lengthAdjust="spacing" textLength="65.3584" x="192.32" y="350.0825">fim partida</text><rect fill="#E8F5E9" height="40" rx="12.5" ry="12.5" style="stroke:#2F3B52;stroke-width:0.5;" width="81.5928" x="682.2" y="563"/><text fill="#000000" font-family="Arial" font-size="14" lengthAdjust="spacing" textLength="71.5928" x="687.2" y="588.0825">m4 init jogo</text><rect fill="#E8F5E9" height="40" rx="12.5" ry="12.5" style="stroke:#2F3B52;stroke-width:0.5;" width="126.7373" x="795.63" y="682"/><text fill="#000000" font-family="Arial" font-size="14" lengthAdjust="spacing" textLength="116.7373" x="800.63" y="707.0825">m4 adiciona passo</text><rect fill="#E8F5E9" height="40" rx="12.5" ry="12.5" style="stroke:#2F3B52;stroke-width:0.5;" width="117.3721" x="804.31" y="801"/><text fill="#000000" font-family="Arial" font-size="14" lengthAdjust="spacing" textLength="107.3721" x="809.31" y="826.0825">m4 mostra passo</text><rect fill="#E8F5E9" height="40" rx="12.5" ry="12.5" style="stroke:#2F3B52;stroke-width:0.5;" width="56.6963" x="811.65" y="920"/><text fill="#000000" font-family="Arial" font-size="14" lengthAdjust="spacing" textLength="46.6963" x="816.65" y="945.0825">m4 gap</text><rect fill="#E8F5E9" height="40" rx="12.5" ry="12.5" style="stroke:#2F3B52;stroke-width:0.5;" width="97.1445" x="955.43" y="1039"/><text fill="#000000" font-family="Arial" font-size="14" lengthAdjust="spacing" textLength="87.1445" x="960.43" y="1064.0825">m4 prox show</text><rect fill="#E8F5E9" height="40" rx="12.5" ry="12.5" style="stroke:#2F3B52;stroke-width:0.5;" width="110.3926" x="948.8" y="1179"/><text fill="#000000" font-family="Arial" font-size="14" lengthAdjust="spacing" textLength="100.3926" x="953.8" y="1204.0825">m4 espera input</text><rect fill="#E8F5E9" height="40" rx="12.5" ry="12.5" style="stroke:#2F3B52;stroke-width:0.5;" width="114.248" x="869.88" y="1319"/><text fill="#000000" font-family="Arial" font-size="14" lengthAdjust="spacing" textLength="104.248" x="874.88" y="1344.0825">m4 registra RGB</text><rect fill="#E8F5E9" height="40" rx="12.5" ry="12.5" style="stroke:#2F3B52;stroke-width:0.5;" width="102.5859" x="947.71" y="1438"/><text fill="#000000" font-family="Arial" font-size="14" lengthAdjust="spacing" textLength="92.5859" x="952.71" y="1463.0825">m4 muda RGB</text><rect fill="#E8F5E9" height="40" rx="12.5" ry="12.5" style="stroke:#2F3B52;stroke-width:0.5;" width="94.8203" x="746.59" y="444"/><text fill="#000000" font-family="Arial" font-size="14" lengthAdjust="spacing" textLength="84.8203" x="751.59" y="469.0825">m4 prox input</text><rect fill="#E8F5E9" height="40" rx="12.5" ry="12.5" style="stroke:#2F3B52;stroke-width:0.5;" width="95.6064" x="1269.2" y="682"/><text fill="#000000" font-family="Arial" font-size="14" lengthAdjust="spacing" textLength="85.6064" x="1274.2" y="707.0825">m4 rodada ok</text><rect fill="#E8F5E9" height="40" rx="12.5" ry="12.5" style="stroke:#2F3B52;stroke-width:0.5;" width="110.3926" x="1118.8" y="801"/><text fill="#000000" font-family="Arial" font-size="14" lengthAdjust="spacing" textLength="100.3926" x="1123.8" y="826.0825">m4 aumenta len</text><rect fill="#E8F5E9" height="40" rx="12.5" ry="12.5" style="stroke:#2F3B52;stroke-width:0.5;" width="98.7168" x="1106.64" y="682"/><text fill="#000000" font-family="Arial" font-size="14" lengthAdjust="spacing" textLength="88.7168" x="1111.64" y="707.0825">m4 rodada fail</text><rect fill="#E8F5E9" height="40" rx="12.5" ry="12.5" style="stroke:#2F3B52;stroke-width:0.5;" width="100.2549" x="956.87" y="682"/><text fill="#000000" font-family="Arial" font-size="14" lengthAdjust="spacing" textLength="90.2549" x="961.87" y="707.0825">m4 vitoria final</text><g class="entity" data-qualified-name="d_modo" id="ent0029"><polygon fill="#F1F1F1" points="1169,333,1181,345,1169,357,1157,345,1169,333" style="stroke:#181818;stroke-width:0.5;"/></g><g class="entity" data-qualified-name="d_timeout" id="ent0030"><polygon fill="#F1F1F1" points="375,1743,387,1755,375,1767,363,1755,375,1743" style="stroke:#181818;stroke-width:0.5;"/></g><g class="entity" data-qualified-name="d_compara" id="ent0031"><polygon fill="#F1F1F1" points="627,1187,639,1199,627,1211,615,1199,627,1187" style="stroke:#181818;stroke-width:0.5;"/></g><g class="entity" data-qualified-name="d_end_m23" id="ent0032"><polygon fill="#F1F1F1" points="536,1047,548,1059,536,1071,524,1059,536,1047" style="stroke:#181818;stroke-width:0.5;"/></g><g class="entity" data-qualified-name="d_erro" id="ent0033"><polygon fill="#F1F1F1" points="381,928,393,940,381,952,369,940,381,928" style="stroke:#181818;stroke-width:0.5;"/></g><g class="entity" data-qualified-name="proxima_rodada" id="ent0034"><polygon fill="#F1F1F1" points="375,1557,387,1569,375,1581,363,1569,375,1557" style="stroke:#181818;stroke-width:0.5;"/></g><g class="entity" data-qualified-name="d_m4_input" id="ent0035"><polygon fill="#F1F1F1" points="1235,571,1247,583,1235,595,1223,583,1235,571" style="stroke:#181818;stroke-width:0.5;"/></g><g class="start_entity" data-qualified-name=".start." data-source-line="57" id="ent0002"><ellipse cx="1265" cy="16" fill="#222222" rx="10" ry="10" style="stroke:#222222;stroke-width:1;"/></g><!--link *start* to inicial--><g class="link" data-entity-1="ent0002" data-entity-2="ent0002" data-link-type="dependency" data-source-line="57" id="lnk3"><path d="M1265,26.49 C1265,43.99 1265,75.62 1265,98.67" fill="none" id="*start*-to-inicial" style="stroke:#2F3B52;stroke-width:1;"/><polygon fill="#2F3B52" points="1265,104.67,1269,95.67,1265,99.67,1261,95.67,1265,104.67" style="stroke:#2F3B52;stroke-width:1;"/><text fill="#000000" font-family="sans-serif" font-size="13" lengthAdjust="spacing" textLength="30.953" x="1266" y="70.897">reset</text></g><!--link inicial to sel_modo--><g class="link" data-entity-1="ent0002" data-entity-2="ent0003" data-link-type="dependency" data-source-line="58" id="lnk4"><path d="M1265,145.09 C1265,162.51 1265,182.13 1265,199.63" fill="none" id="inicial-to-sel_modo" style="stroke:#2F3B52;stroke-width:1;"/><polygon fill="#2F3B52" points="1265,205.63,1269,196.63,1265,200.63,1261,196.63,1265,205.63" style="stroke:#2F3B52;stroke-width:1;"/></g><!--link sel_modo to reg_modo--><g class="link" data-entity-1="ent0003" data-entity-2="ent0004" data-link-type="dependency" data-source-line="60" id="lnk5"><path d="M1273.6,246.22 C1277.29,255.13 1281.35,265.94 1284,276 C1288.26,292.15 1290.2079,305.0045 1291.6879,318.7545" fill="none" id="sel_modo-to-reg_modo" style="stroke:#2F3B52;stroke-width:1;"/><polygon fill="#2F3B52" points="1292.33,324.72,1295.3439,315.3436,1291.7949,319.7487,1287.3898,316.1998,1292.33,324.72" style="stroke:#2F3B52;stroke-width:1;"/><text fill="#000000" font-family="sans-serif" font-size="13" lengthAdjust="spacing" textLength="75.1271" x="1289.03" y="290.897">pulso_modo</text></g><!--link reg_modo to sel_modo--><g class="link" data-entity-1="ent0004" data-entity-2="ent0003" data-link-type="dependency" data-source-line="61" id="lnk6"><path d="M1289.2,324.65 C1283.83,302.96 1276.6026,273.824 1271.2326,252.144" fill="none" id="reg_modo-to-sel_modo" style="stroke:#2F3B52;stroke-width:1;"/><polygon fill="#2F3B52" points="1269.79,246.32,1268.0712,256.0177,1270.9921,251.1733,1275.8365,254.0943,1269.79,246.32" style="stroke:#2F3B52;stroke-width:1;"/></g><!--link sel_modo to d_modo--><g class="link" data-entity-1="ent0003" data-entity-2="ent0029" data-link-type="dependency" data-source-line="63" id="lnk7"><path d="M1230.42,246.45 C1218.62,254.41 1206.11,264.47 1197,276 C1182.6,294.23 1175.9693,315.0877 1172.5093,328.9877" fill="none" id="sel_modo-to-d_modo" style="stroke:#2F3B52;stroke-width:1;"/><polygon fill="#2F3B52" points="1171.06,334.81,1177.1155,327.0427,1172.2677,329.9581,1169.3524,325.1103,1171.06,334.81" style="stroke:#2F3B52;stroke-width:1;"/><text fill="#000000" font-family="sans-serif" font-size="13" lengthAdjust="spacing" textLength="71.1231" x="1198" y="290.897">pulso_jogar</text></g><!--link d_modo to espera_btn--><g class="link" data-entity-1="ent0029" data-entity-2="ent0008" data-link-type="dependency" data-source-line="64" id="lnk8"><path d="M1177.46,349.02 C1188.99,353.05 1210.36,360.25 1229,365 C1339.57,393.16 1733,348.9 1733,463 C1733,463 1733,463 1733,1867 C1733,1978.17 864.76,1984.3142 652.17,1984.1642" fill="none" id="d_modo-to-espera_btn" style="stroke:#2F3B52;stroke-width:1;"/><polygon fill="#2F3B52" points="646.17,1984.16,655.1672,1988.1663,651.17,1984.1635,655.1728,1980.1664,646.17,1984.16" style="stroke:#2F3B52;stroke-width:1;"/><text fill="#000000" font-family="sans-serif" font-size="13" lengthAdjust="spacing" textLength="69.5111" x="1734" y="1204.397">s_modo = 0</text></g><!--link d_modo to rst_pontos--><g class="link" data-entity-1="ent0029" data-entity-2="ent0005" data-link-type="dependency" data-source-line="65" id="lnk9"><path d="M1159.08,347.74 C1092.19,359.51 711.0793,426.5706 565.3693,452.2006" fill="none" id="d_modo-to-rst_pontos" style="stroke:#2F3B52;stroke-width:1;"/><polygon fill="#2F3B52" points="559.46,453.24,569.0169,455.6204,564.3844,452.3738,567.631,447.7413,559.46,453.24" style="stroke:#2F3B52;stroke-width:1;"/><text fill="#000000" font-family="sans-serif" font-size="13" lengthAdjust="spacing" textLength="73.0081" x="877.31" y="409.897">s_modo != 0</text></g><!--link rst_pontos to reg_cor_alvo--><g class="link" data-entity-1="ent0005" data-entity-2="ent0006" data-link-type="dependency" data-source-line="67" id="lnk10"><path d="M502.5,484.44 C498.45,528.8 484.58,639.99 443,722 C341.77,921.64 145,904.17 145,1128 C145,1128 145,1128 145,1570 C145,1607.47 246.0011,1634.8927 314.0411,1649.3527" fill="none" id="rst_pontos-to-reg_cor_alvo" style="stroke:#2F3B52;stroke-width:1;"/><polygon fill="#2F3B52" points="319.91,1650.6,311.9381,1644.8165,315.0192,1649.5606,310.2751,1652.6417,319.91,1650.6" style="stroke:#2F3B52;stroke-width:1;"/><text fill="#000000" font-family="sans-serif" font-size="13" lengthAdjust="spacing" textLength="73.0081" x="158.64" y="1064.397">s_modo != 3</text></g><!--link rst_pontos to m4_game_init--><g class="link" data-entity-1="ent0005" data-entity-2="ent0016" data-link-type="dependency" data-source-line="68" id="lnk11"><path d="M540.16,484.32 C580.74,506 640.8879,538.1328 681.4879,559.8228" fill="none" id="rst_pontos-to-m4_game_init" style="stroke:#2F3B52;stroke-width:1;"/><polygon fill="#2F3B52" points="686.78,562.65,680.7266,554.881,682.3699,560.294,676.957,561.9372,686.78,562.65" style="stroke:#2F3B52;stroke-width:1;"/><text fill="#000000" font-family="sans-serif" font-size="13" lengthAdjust="spacing" textLength="69.5111" x="627.61" y="528.897">s_modo = 3</text></g><!--link reg_cor_alvo to d_timeout--><g class="link" data-entity-1="ent0006" data-entity-2="ent0030" data-link-type="dependency" data-source-line="69" id="lnk12"><path d="M375,1682.3 C375,1700.56 375,1721.36 375,1736.49" fill="none" id="reg_cor_alvo-to-d_timeout" style="stroke:#2F3B52;stroke-width:1;"/><polygon fill="#2F3B52" points="375,1742.49,379,1733.49,375,1737.49,371,1733.49,375,1742.49" style="stroke:#2F3B52;stroke-width:1;"/></g><!--link d_timeout to espera_timeout--><g class="link" data-entity-1="ent0030" data-entity-2="ent0007" data-link-type="dependency" data-source-line="71" id="lnk13"><path d="M370.94,1763.49 C361.88,1780.23 342.6169,1815.8338 329.3669,1840.3038" fill="none" id="d_timeout-to-espera_timeout" style="stroke:#2F3B52;stroke-width:1;"/><polygon fill="#2F3B52" points="326.51,1845.58,334.3128,1839.5704,328.8908,1841.1832,327.278,1835.7611,326.51,1845.58" style="stroke:#2F3B52;stroke-width:1;"/><text fill="#000000" font-family="sans-serif" font-size="13" lengthAdjust="spacing" textLength="69.5111" x="353.52" y="1811.897">s_modo = 2</text></g><!--link d_timeout to espera_btn--><g class="link" data-entity-1="ent0030" data-entity-2="ent0008" data-link-type="dependency" data-source-line="72" id="lnk14"><path d="M381.88,1760.52 C392.82,1767.79 414.7,1782.73 432,1797 C496.65,1850.31 555.2119,1924.0461 582.2619,1959.9861" fill="none" id="d_timeout-to-espera_btn" style="stroke:#2F3B52;stroke-width:1;"/><polygon fill="#2F3B52" points="585.87,1964.78,583.6538,1955.1837,582.8632,1960.7851,577.2619,1959.9945,585.87,1964.78" style="stroke:#2F3B52;stroke-width:1;"/><text fill="#000000" font-family="sans-serif" font-size="13" lengthAdjust="spacing" textLength="73.0081" x="522.23" y="1871.397">s_modo != 2</text></g><!--link espera_timeout to espera_timeout--><g class="link" data-entity-1="ent0007" data-entity-2="ent0007" data-link-type="dependency" data-source-line="74" id="lnk15"><path d="M367.39,1854.87 C386.54,1854.5 402.3,1858.21 402.3,1866 C402.3,1873.79 392.5389,1877.6159 373.3889,1877.2459" fill="none" id="espera_timeout-to-espera_timeout" style="stroke:#2F3B52;stroke-width:1;"/><polygon fill="#2F3B52" points="367.39,1877.13,376.3111,1881.3031,372.3891,1877.2266,376.4656,1873.3046,367.39,1877.13" style="stroke:#2F3B52;stroke-width:1;"/><text fill="#000000" font-family="sans-serif" font-size="13" lengthAdjust="spacing" textLength="69.7581" x="408.3" y="1871.397">timeout = 0</text></g><!--link espera_timeout to espera_btn--><g class="link" data-entity-1="ent0007" data-entity-2="ent0008" data-link-type="dependency" data-source-line="75" id="lnk16"><path d="M346.94,1886.49 C371.28,1901.23 406.42,1921.21 439,1935 C476.54,1950.88 515.1703,1962.4626 547.8403,1971.1226" fill="none" id="espera_timeout-to-espera_btn" style="stroke:#2F3B52;stroke-width:1;"/><polygon fill="#2F3B52" points="553.64,1972.66,545.9654,1966.4875,548.8069,1971.3789,543.9155,1974.2204,553.64,1972.66" style="stroke:#2F3B52;stroke-width:1;"/><text fill="#000000" font-family="sans-serif" font-size="13" lengthAdjust="spacing" textLength="69.7581" x="440" y="1930.897">timeout = 1</text></g><!--link espera_btn to reg_rgb_btn--><g class="link" data-entity-1="ent0008" data-entity-2="ent0009" data-link-type="dependency" data-source-line="77" id="lnk17"><path d="M590.26,2005.32 C579.33,2027 564.3901,2056.6019 553.4601,2078.2919" fill="none" id="espera_btn-to-reg_rgb_btn" style="stroke:#2F3B52;stroke-width:1;"/><polygon fill="#2F3B52" points="550.76,2083.65,558.3822,2077.4128,553.0101,2079.1849,551.238,2073.8127,550.76,2083.65" style="stroke:#2F3B52;stroke-width:1;"/><text fill="#000000" font-family="sans-serif" font-size="13" lengthAdjust="spacing" textLength="41.795" x="575.03" y="2049.897">jogada</text></g><!--link reg_rgb_btn to muda_rgb--><g class="link" data-entity-1="ent0009" data-entity-2="ent0010" data-link-type="dependency" data-source-line="78" id="lnk18"><path d="M552.38,2124.09 C562.76,2141.51 574.9582,2161.976 585.3882,2179.476" fill="none" id="reg_rgb_btn-to-muda_rgb" style="stroke:#2F3B52;stroke-width:1;"/><polygon fill="#2F3B52" points="588.46,2184.63,587.2883,2174.8511,585.9002,2180.335,580.4163,2178.9468,588.46,2184.63" style="stroke:#2F3B52;stroke-width:1;"/></g><!--link muda_rgb to espera_btn--><g class="link" data-entity-1="ent0010" data-entity-2="ent0008" data-link-type="dependency" data-source-line="79" id="lnk19"><path d="M607.66,2184.52 C619.06,2152.85 637.82,2088.35 625,2035 C622.5,2024.6 620.3575,2019.1405 615.4175,2010.4205" fill="none" id="muda_rgb-to-espera_btn" style="stroke:#2F3B52;stroke-width:1;"/><polygon fill="#2F3B52" points="612.46,2005.2,613.4159,2015.0024,614.9246,2009.5504,620.3765,2011.0591,612.46,2005.2" style="stroke:#2F3B52;stroke-width:1;"/></g><!--link espera_btn to compara_cor--><g class="link" data-entity-1="ent0008" data-entity-2="ent0011" data-link-type="dependency" data-source-line="81" id="lnk20"><path d="M618.51,1964.64 C637.41,1942.76 664,1905.2 664,1867 C664,1457 664,1457 664,1457 C664,1422.31 657.8666,1388.2926 652.8366,1365.1926" fill="none" id="espera_btn-to-compara_cor" style="stroke:#2F3B52;stroke-width:1;"/><polygon fill="#2F3B52" points="651.56,1359.33,649.5665,1368.975,652.6238,1364.2155,657.3833,1367.2729,651.56,1359.33" style="stroke:#2F3B52;stroke-width:1;"/><text fill="#000000" font-family="sans-serif" font-size="13" lengthAdjust="spacing" textLength="60.151" x="665" y="1667.397">confirmar</text></g><!--link m4_wait_input to m4_reg_rgb_btn--><g class="link" data-entity-1="ent0021" data-entity-2="ent0022" data-link-type="dependency" data-source-line="82" id="lnk21"><path d="M988.34,1219.4 C981.65,1228.16 974,1238.81 968,1249 C954.44,1272.01 944.3578,1294.7151 936.8378,1313.1351" fill="none" id="m4_wait_input-to-m4_reg_rgb_btn" style="stroke:#2F3B52;stroke-width:1;"/><polygon fill="#2F3B52" points="934.57,1318.69,941.675,1311.8695,936.4598,1314.0609,934.2684,1308.8458,934.57,1318.69" style="stroke:#2F3B52;stroke-width:1;"/><text fill="#000000" font-family="sans-serif" font-size="13" lengthAdjust="spacing" textLength="41.795" x="969" y="1274.397">jogada</text></g><!--link m4_reg_rgb_btn to m4_muda_rgb--><g class="link" data-entity-1="ent0022" data-entity-2="ent0023" data-link-type="dependency" data-source-line="83" id="lnk22"><path d="M938.89,1359.32 C952.23,1381 970.6067,1410.8492 983.9467,1432.5392" fill="none" id="m4_reg_rgb_btn-to-m4_muda_rgb" style="stroke:#2F3B52;stroke-width:1;"/><polygon fill="#2F3B52" points="987.09,1437.65,985.7823,1427.8883,984.4706,1433.391,978.9679,1432.0794,987.09,1437.65" style="stroke:#2F3B52;stroke-width:1;"/></g><!--link m4_muda_rgb to m4_wait_input--><g class="link" data-entity-1="ent0023" data-entity-2="ent0021" data-link-type="dependency" data-source-line="84" id="lnk23"><path d="M1002.88,1437.75 C1009.76,1400.99 1022.68,1318.29 1015,1249 C1013.9,1239.12 1013.0399,1234.1447 1010.8299,1225.2047" fill="none" id="m4_muda_rgb-to-m4_wait_input" style="stroke:#2F3B52;stroke-width:1;"/><polygon fill="#2F3B52" points="1009.39,1219.38,1007.6667,1229.0769,1010.5899,1224.2339,1015.4329,1227.1571,1009.39,1219.38" style="stroke:#2F3B52;stroke-width:1;"/></g><!--link m4_wait_input to compara_cor--><g class="link" data-entity-1="ent0021" data-entity-2="ent0011" data-link-type="dependency" data-source-line="85" id="lnk24"><path d="M953.61,1219.48 C883.55,1246.56 763.4465,1292.9868 696.8265,1318.7368" fill="none" id="m4_wait_input-to-compara_cor" style="stroke:#2F3B52;stroke-width:1;"/><polygon fill="#2F3B52" points="691.23,1320.9,701.0668,1321.3863,695.8937,1319.0974,698.1826,1313.9243,691.23,1320.9" style="stroke:#2F3B52;stroke-width:1;"/><text fill="#000000" font-family="sans-serif" font-size="13" lengthAdjust="spacing" textLength="60.151" x="868.97" y="1274.397">confirmar</text></g><!--reverse link d_compara to compara_cor--><g class="link" data-entity-1="ent0031" data-entity-2="ent0011" data-link-type="dependency" data-source-line="87" id="lnk26"><path d="M629.2988,1215.8582 C632.5888,1238.6082 639.88,1288.88 644.2,1318.7" fill="none" id="d_compara-backto-compara_cor" style="stroke:#2F3B52;stroke-width:1;"/><polygon fill="#2F3B52" points="628.44,1209.92,625.7693,1219.3998,629.1556,1214.8685,633.687,1218.2548,628.44,1209.92" style="stroke:#2F3B52;stroke-width:1;"/></g><!--reverse link m4_next_input to d_compara--><g class="link" data-entity-1="ent0024" data-entity-2="ent0031" data-link-type="dependency" data-source-line="88" id="lnk28"><path d="M740.4033,478.318 C691.0633,493.438 627,523.41 627,582 C627,582 627,582 627,1060 C627,1106.96 627,1162.9 627,1186.55" fill="none" id="m4_next_input-backto-d_compara" style="stroke:#2F3B52;stroke-width:1;"/><polygon fill="#2F3B52" points="746.14,476.56,736.363,475.3725,741.3594,478.025,738.707,483.0214,746.14,476.56" style="stroke:#2F3B52;stroke-width:1;"/><text fill="#000000" font-family="sans-serif" font-size="13" lengthAdjust="spacing" textLength="69.5111" x="628" y="826.397">s_modo = 3</text></g><!--reverse link d_end_m23 to d_compara--><g class="link" data-entity-1="ent0032" data-entity-2="ent0031" data-link-type="dependency" data-source-line="89" id="lnk30"><path d="M529.6471,1073.0591 C522.0471,1089.3791 509.66,1122.91 526,1149 C546.48,1181.7 595.7,1193.13 616.95,1196.63" fill="none" id="d_end_m23-backto-d_compara" style="stroke:#2F3B52;stroke-width:1;"/><polygon fill="#2F3B52" points="532.18,1067.62,524.7545,1074.0901,530.0692,1072.1526,532.0067,1077.4673,532.18,1067.62" style="stroke:#2F3B52;stroke-width:1;"/><text fill="#000000" font-family="sans-serif" font-size="13" lengthAdjust="spacing" textLength="73.0081" x="527" y="1134.397">s_modo != 3</text></g><!--reverse link fim_partida to d_end_m23--><g class="link" data-entity-1="ent0015" data-entity-2="ent0032" data-link-type="dependency" data-source-line="91" id="lnk32"><path d="M180.8938,349.9534 C118.1538,357.5734 6,381.96 6,463 C6,463 6,463 6,643.5 C6,927.91 407.82,740.31 544,990 C554.7,1009.62 545.37,1037.1 539.66,1050.31" fill="none" id="fim_partida-backto-d_end_m23" style="stroke:#2F3B52;stroke-width:1;"/><polygon fill="#2F3B52" points="186.85,349.23,177.4334,346.3443,181.8865,349.8328,178.3979,354.2859,186.85,349.23" style="stroke:#2F3B52;stroke-width:1;"/><text fill="#000000" font-family="sans-serif" font-size="13" lengthAdjust="spacing" textLength="414.4404" x="19.91" y="707.397">(s_modo=1/2) &amp;&amp; (atingiu_pontuacao_max || ciclo_niveis_completo)</text></g><!--reverse link d_erro to d_end_m23--><g class="link" data-entity-1="ent0033" data-entity-2="ent0032" data-link-type="dependency" data-source-line="92" id="lnk34"><path d="M390.8631,950.8822 C403.0731,963.0322 428.94,987.99 457,1009 C482.07,1027.76 514.51,1046.23 528.75,1054.07" fill="none" id="d_erro-backto-d_end_m23" style="stroke:#2F3B52;stroke-width:1;"/><polygon fill="#2F3B52" points="386.61,946.65,390.1682,955.8337,390.1542,950.1768,395.8111,950.1629,386.61,946.65" style="stroke:#2F3B52;stroke-width:1;"/><text fill="#000000" font-family="sans-serif" font-size="13" lengthAdjust="spacing" textLength="81.5881" x="458" y="1004.897">demais casos</text></g><!--link d_erro to fim_exato--><g class="link" data-entity-1="ent0033" data-entity-2="ent0012" data-link-type="dependency" data-source-line="94" id="lnk35"><path d="M371.07,942.51 C350.01,946.28 300.93,958.2 278,990 C252.45,1025.44 253.824,1073.7917 257.234,1102.5717" fill="none" id="d_erro-to-fim_exato" style="stroke:#2F3B52;stroke-width:1;"/><polygon fill="#2F3B52" points="257.94,1108.53,260.8533,1099.1219,257.3517,1103.5647,252.9088,1100.0632,257.94,1108.53" style="stroke:#2F3B52;stroke-width:1;"/><text fill="#000000" font-family="sans-serif" font-size="13" lengthAdjust="spacing" textLength="55.003" x="279" y="1004.897">erro == 0</text></g><!--link d_erro to fim_perto--><g class="link" data-entity-1="ent0033" data-entity-2="ent0013" data-link-type="dependency" data-source-line="95" id="lnk36"><path d="M385.72,947.34 C396.81,962.5 424.91,1002.3 442,1039 C459.56,1076.71 471,1086.4 471,1128 C471,1128 471,1128 471,1340 C471,1374.33 471,1408.32 471,1431.54" fill="none" id="d_erro-to-fim_perto" style="stroke:#2F3B52;stroke-width:1;"/><polygon fill="#2F3B52" points="471,1437.54,475,1428.54,471,1432.54,467,1428.54,471,1437.54" style="stroke:#2F3B52;stroke-width:1;"/><text fill="#000000" font-family="sans-serif" font-size="13" lengthAdjust="spacing" textLength="47.567" x="472" y="1204.397">erro &lt; 3</text></g><!--link d_erro to fim_longe--><g class="link" data-entity-1="ent0033" data-entity-2="ent0014" data-link-type="dependency" data-source-line="96" id="lnk37"><path d="M380.55,952.26 C378.65,1000.21 371.428,1181.7947 369.008,1242.7547" fill="none" id="d_erro-to-fim_longe" style="stroke:#2F3B52;stroke-width:1;"/><polygon fill="#2F3B52" points="368.77,1248.75,373.1239,1239.9158,368.9683,1243.7539,365.1302,1239.5984,368.77,1248.75" style="stroke:#2F3B52;stroke-width:1;"/><text fill="#000000" font-family="sans-serif" font-size="13" lengthAdjust="spacing" textLength="55.003" x="378.09" y="1064.397">erro &gt;= 3</text></g><!--link fim_exato to proxima_rodada--><g class="link" data-entity-1="ent0012" data-entity-2="ent0034" data-link-type="dependency" data-source-line="98" id="lnk38"><path d="M258.28,1149.15 C254.74,1175.76 249,1225.43 249,1268 C249,1268 249,1268 249,1459 C249,1521.19 332.1779,1553.9026 360.6479,1563.3926" fill="none" id="fim_exato-to-proxima_rodada" style="stroke:#2F3B52;stroke-width:1;"/><polygon fill="#2F3B52" points="366.34,1565.29,359.0668,1558.6492,361.5966,1563.7089,356.5369,1566.2387,366.34,1565.29" style="stroke:#2F3B52;stroke-width:1;"/><text fill="#000000" font-family="sans-serif" font-size="13" lengthAdjust="spacing" textLength="71.1231" x="250" y="1344.397">pulso_jogar</text></g><!--link fim_perto to proxima_rodada--><g class="link" data-entity-1="ent0013" data-entity-2="ent0034" data-link-type="dependency" data-source-line="99" id="lnk39"><path d="M453.84,1478.49 C431.62,1503.72 398.0756,1541.7974 384.2656,1557.4774" fill="none" id="fim_perto-to-proxima_rodada" style="stroke:#2F3B52;stroke-width:1;"/><polygon fill="#2F3B52" points="380.3,1561.98,389.2502,1557.8698,383.6047,1558.2278,383.2467,1552.5823,380.3,1561.98" style="stroke:#2F3B52;stroke-width:1;"/><text fill="#000000" font-family="sans-serif" font-size="13" lengthAdjust="spacing" textLength="71.1231" x="426.88" y="1522.897">pulso_jogar</text></g><!--link fim_longe to proxima_rodada--><g class="link" data-entity-1="ent0014" data-entity-2="ent0034" data-link-type="dependency" data-source-line="100" id="lnk40"><path d="M368.45,1289.09 C369.78,1345.75 373.5399,1505.7216 374.5899,1550.6716" fill="none" id="fim_longe-to-proxima_rodada" style="stroke:#2F3B52;stroke-width:1;"/><polygon fill="#2F3B52" points="374.73,1556.67,378.5187,1547.579,374.6132,1551.6714,370.5209,1547.7659,374.73,1556.67" style="stroke:#2F3B52;stroke-width:1;"/><text fill="#000000" font-family="sans-serif" font-size="13" lengthAdjust="spacing" textLength="71.1231" x="372.21" y="1403.897">pulso_jogar</text></g><!--link proxima_rodada to reg_cor_alvo--><g class="link" data-entity-1="ent0034" data-entity-2="ent0006" data-link-type="dependency" data-source-line="101" id="lnk41"><path d="M375,1581.53 C375,1596.64 375,1617.37 375,1635.62" fill="none" id="proxima_rodada-to-reg_cor_alvo" style="stroke:#2F3B52;stroke-width:1;"/><polygon fill="#2F3B52" points="375,1641.62,379,1632.62,375,1636.62,371,1632.62,375,1641.62" style="stroke:#2F3B52;stroke-width:1;"/></g><!--link fim_partida to rst_pontos--><g class="link" data-entity-1="ent0015" data-entity-2="ent0005" data-link-type="dependency" data-source-line="102" id="lnk42"><path d="M262.92,361.9 C313.57,383.14 397.7368,418.4398 452.2768,441.3098" fill="none" id="fim_partida-to-rst_pontos" style="stroke:#2F3B52;stroke-width:1;"/><polygon fill="#2F3B52" points="457.81,443.63,451.057,436.4609,453.199,441.6965,447.9633,443.8385,457.81,443.63" style="stroke:#2F3B52;stroke-width:1;"/><text fill="#000000" font-family="sans-serif" font-size="13" lengthAdjust="spacing" textLength="71.1231" x="382.2" y="409.897">pulso_jogar</text></g><!--link m4_game_init to m4_add_step--><g class="link" data-entity-1="ent0016" data-entity-2="ent0017" data-link-type="dependency" data-source-line="104" id="lnk43"><path d="M724.94,603.46 C727.36,618.37 732.8,638.61 745,652 C758.42,666.73 771.4659,674.9649 789.7559,682.3449" fill="none" id="m4_game_init-to-m4_add_step" style="stroke:#2F3B52;stroke-width:1;"/><polygon fill="#2F3B52" points="795.32,684.59,788.4706,677.5129,790.6832,682.7191,785.4771,684.9317,795.32,684.59" style="stroke:#2F3B52;stroke-width:1;"/></g><!--link m4_add_step to m4_show_step--><g class="link" data-entity-1="ent0017" data-entity-2="ent0018" data-link-type="dependency" data-source-line="105" id="lnk44"><path d="M859.66,722.32 C860.4,744 861.3954,772.9635 862.1354,794.6535" fill="none" id="m4_add_step-to-m4_show_step" style="stroke:#2F3B52;stroke-width:1;"/><polygon fill="#2F3B52" points="862.34,800.65,866.0308,791.5188,862.1695,795.6529,858.0355,791.7916,862.34,800.65" style="stroke:#2F3B52;stroke-width:1;"/></g><!--link m4_show_step to m4_show_step--><g class="link" data-entity-1="ent0018" data-entity-2="ent0018" data-link-type="dependency" data-source-line="106" id="lnk45"><path d="M922.01,809.84 C941.31,809.9 956.69,813.62 956.69,821 C956.69,828.38 947.31,832.0813 928.01,832.1413" fill="none" id="m4_show_step-to-m4_show_step" style="stroke:#2F3B52;stroke-width:1;"/><polygon fill="#2F3B52" points="922.01,832.16,931.0224,836.132,927.01,832.1445,930.9975,828.132,922.01,832.16" style="stroke:#2F3B52;stroke-width:1;"/><text fill="#000000" font-family="sans-serif" font-size="13" lengthAdjust="spacing" textLength="90.1941" x="962.69" y="826.397">fim_t_show = 0</text></g><!--link m4_show_step to m4_show_gap--><g class="link" data-entity-1="ent0018" data-entity-2="ent0019" data-link-type="dependency" data-source-line="107" id="lnk46"><path d="M859.2,841.32 C854.94,863 849.2289,892.073 844.9589,913.763" fill="none" id="m4_show_step-to-m4_show_gap" style="stroke:#2F3B52;stroke-width:1;"/><polygon fill="#2F3B52" points="843.8,919.65,849.4631,911.5921,844.7658,914.7442,841.6137,910.0469,843.8,919.65" style="stroke:#2F3B52;stroke-width:1;"/><text fill="#000000" font-family="sans-serif" font-size="13" lengthAdjust="spacing" textLength="90.1941" x="853.88" y="885.897">fim_t_show = 1</text></g><!--link m4_show_gap to m4_show_gap--><g class="link" data-entity-1="ent0019" data-entity-2="ent0019" data-link-type="dependency" data-source-line="108" id="lnk47"><path d="M868.67,929.63 C886.44,927.13 903.35,930.59 903.35,940 C903.35,949.41 892.3815,953.7059 874.6115,951.2059" fill="none" id="m4_show_gap-to-m4_show_gap" style="stroke:#2F3B52;stroke-width:1;"/><polygon fill="#2F3B52" points="868.67,950.37,877.025,955.5848,873.6212,951.0666,878.1395,947.6628,868.67,950.37" style="stroke:#2F3B52;stroke-width:1;"/><text fill="#000000" font-family="sans-serif" font-size="13" lengthAdjust="spacing" textLength="81.1331" x="909.35" y="945.397">fim_t_gap = 0</text></g><!--link m4_show_gap to m4_next_show--><g class="link" data-entity-1="ent0019" data-entity-2="ent0020" data-link-type="dependency" data-source-line="109" id="lnk48"><path d="M867.08,960.32 C897.47,982 941.5958,1013.4752 971.9958,1035.1652" fill="none" id="m4_show_gap-to-m4_next_show" style="stroke:#2F3B52;stroke-width:1;"/><polygon fill="#2F3B52" points="976.88,1038.65,971.8769,1030.1666,972.8098,1035.746,967.2304,1036.6789,976.88,1038.65" style="stroke:#2F3B52;stroke-width:1;"/><text fill="#000000" font-family="sans-serif" font-size="13" lengthAdjust="spacing" textLength="81.1331" x="932.82" y="1004.897">fim_t_gap = 1</text></g><!--reverse link m4_show_step to m4_next_show--><g class="link" data-entity-1="ent0018" data-entity-2="ent0020" data-link-type="dependency" data-source-line="110" id="lnk50"><path d="M910.9406,844.1639 C926.5806,852.2439 938.62,859.64 953,871 C975.96,889.15 981.86,894.95 997,920 C1018.32,955.27 1030.58,968.49 1023,1009 C1021.09,1019.22 1017.11,1030.06 1013.29,1038.93" fill="none" id="m4_show_step-backto-m4_next_show" style="stroke:#2F3B52;stroke-width:1;"/><polygon fill="#2F3B52" points="905.61,841.41,911.77,849.0947,910.0522,843.705,915.4419,841.9871,905.61,841.41" style="stroke:#2F3B52;stroke-width:1;"/><text fill="#000000" font-family="sans-serif" font-size="13" lengthAdjust="spacing" textLength="107.0551" x="1020.83" y="945.397">fim_show_seq = 0</text></g><!--link m4_next_show to m4_wait_input--><g class="link" data-entity-1="ent0020" data-entity-2="ent0021" data-link-type="dependency" data-source-line="111" id="lnk51"><path d="M1004,1079.48 C1004,1105.78 1004,1146.37 1004,1172.62" fill="none" id="m4_next_show-to-m4_wait_input" style="stroke:#2F3B52;stroke-width:1;"/><polygon fill="#2F3B52" points="1004,1178.62,1008,1169.62,1004,1173.62,1000,1169.62,1004,1178.62" style="stroke:#2F3B52;stroke-width:1;"/><text fill="#000000" font-family="sans-serif" font-size="13" lengthAdjust="spacing" textLength="107.0551" x="1005" y="1134.397">fim_show_seq = 1</text></g><!--link m4_next_input to d_m4_input--><g class="link" data-entity-1="ent0024" data-entity-2="ent0035" data-link-type="dependency" data-source-line="113" id="lnk52"><path d="M841.61,477.63 C943.4,504.64 1171.0907,565.0411 1220.0807,578.0411" fill="none" id="m4_next_input-to-d_m4_input" style="stroke:#2F3B52;stroke-width:1;"/><polygon fill="#2F3B52" points="1225.88,579.58,1218.207,573.4055,1221.0473,578.2976,1216.1551,581.1378,1225.88,579.58" style="stroke:#2F3B52;stroke-width:1;"/></g><!--link d_m4_input to m4_round_fail--><g class="link" data-entity-1="ent0035" data-entity-2="ent0027" data-link-type="dependency" data-source-line="114" id="lnk53"><path d="M1231.28,591.38 C1224.74,604.13 1210.5,630.92 1196,652 C1189.03,662.13 1184.3663,668.1918 1176.9763,676.9618" fill="none" id="d_m4_input-to-m4_round_fail" style="stroke:#2F3B52;stroke-width:1;"/><polygon fill="#2F3B52" points="1173.11,681.55,1181.9682,677.2451,1176.3319,677.7265,1175.8506,672.0901,1173.11,681.55" style="stroke:#2F3B52;stroke-width:1;"/><text fill="#000000" font-family="sans-serif" font-size="13" lengthAdjust="spacing" textLength="55.003" x="1208.64" y="647.897">erro &gt;= 3</text></g><!--link d_m4_input to m4_vitoria_final--><g class="link" data-entity-1="ent0035" data-entity-2="ent0028" data-link-type="dependency" data-source-line="115" id="lnk54"><path d="M1224.08,584.52 C1181.69,586.81 1028.92,597.43 1000,633 C989.07,646.44 990.8692,661.017 996.1692,675.917" fill="none" id="d_m4_input-to-m4_vitoria_final" style="stroke:#2F3B52;stroke-width:1;"/><polygon fill="#2F3B52" points="998.18,681.57,998.9325,671.7499,996.5043,676.8591,991.3951,674.431,998.18,681.57" style="stroke:#2F3B52;stroke-width:1;"/><text fill="#000000" font-family="sans-serif" font-size="13" lengthAdjust="spacing" textLength="186.3032" x="1001" y="647.897">fim_input_seq &amp;&amp; seq_no_max</text></g><!--link d_m4_input to m4_round_ok--><g class="link" data-entity-1="ent0035" data-entity-2="ent0025" data-link-type="dependency" data-source-line="116" id="lnk55"><path d="M1240.09,590.21 C1247.56,599.39 1261.79,617.19 1273,633 C1284.39,649.06 1293.2964,662.8043 1301.9164,676.5743" fill="none" id="d_m4_input-to-m4_round_ok" style="stroke:#2F3B52;stroke-width:1;"/><polygon fill="#2F3B52" points="1305.1,681.66,1303.715,671.909,1302.447,677.4219,1296.9341,676.1539,1305.1,681.66" style="stroke:#2F3B52;stroke-width:1;"/><text fill="#000000" font-family="sans-serif" font-size="13" lengthAdjust="spacing" textLength="189.8002" x="1286.57" y="647.897">fim_input_seq &amp;&amp; !seq_no_max</text></g><!--link d_m4_input to m4_wait_input--><g class="link" data-entity-1="ent0035" data-entity-2="ent0021" data-link-type="dependency" data-source-line="117" id="lnk56"><path d="M1246.86,583.74 C1284.41,583.45 1403.09,586.47 1485,633 C1520.3,653.05 1546,660.4 1546,701 C1546,701 1546,701 1546,1060 C1546,1159.65 1203.5814,1187.8986 1065.4514,1195.3086" fill="none" id="d_m4_input-to-m4_wait_input" style="stroke:#2F3B52;stroke-width:1;"/><polygon fill="#2F3B52" points="1059.46,1195.63,1068.6614,1199.1421,1064.4528,1195.3622,1068.2328,1191.1536,1059.46,1195.63" style="stroke:#2F3B52;stroke-width:1;"/><text fill="#000000" font-family="sans-serif" font-size="13" lengthAdjust="spacing" textLength="162.0452" x="1547" y="885.897">!fim_input_seq &amp;&amp; erro &lt; 3</text></g><!--link m4_round_ok to m4_add_len--><g class="link" data-entity-1="ent0025" data-entity-2="ent0026" data-link-type="dependency" data-source-line="119" id="lnk57"><path d="M1293.39,722.32 C1266.89,744 1228.8037,775.1606 1202.2937,796.8506" fill="none" id="m4_round_ok-to-m4_add_len" style="stroke:#2F3B52;stroke-width:1;"/><polygon fill="#2F3B52" points="1197.65,800.65,1207.1486,798.0467,1201.5198,797.4838,1202.0827,791.855,1197.65,800.65" style="stroke:#2F3B52;stroke-width:1;"/><text fill="#000000" font-family="sans-serif" font-size="13" lengthAdjust="spacing" textLength="71.1231" x="1255.06" y="766.897">pulso_jogar</text></g><!--reverse link m4_add_step to m4_add_len--><g class="link" data-entity-1="ent0017" data-entity-2="ent0026" data-link-type="dependency" data-source-line="120" id="lnk59"><path d="M916.9945,724.5392 C975.2545,746.1792 1063.2,778.84 1121.51,800.5" fill="none" id="m4_add_step-backto-m4_add_len" style="stroke:#2F3B52;stroke-width:1;"/><polygon fill="#2F3B52" points="911.37,722.45,918.414,729.3334,916.0571,724.191,921.1996,721.8341,911.37,722.45" style="stroke:#2F3B52;stroke-width:1;"/></g><!--reverse link m4_game_init to m4_round_fail--><g class="link" data-entity-1="ent0016" data-entity-2="ent0027" data-link-type="dependency" data-source-line="121" id="lnk61"><path d="M769.8701,601.3141 C820.9301,620.1241 897.36,648.05 912,652 C983.12,671.2 1002.9,666.92 1075,682 C1085.18,684.13 1096.04,686.56 1106.39,688.96" fill="none" id="m4_game_init-backto-m4_round_fail" style="stroke:#2F3B52;stroke-width:1;"/><polygon fill="#2F3B52" points="764.24,599.24,771.3025,606.1045,768.9318,600.9684,774.0679,598.5977,764.24,599.24" style="stroke:#2F3B52;stroke-width:1;"/><text fill="#000000" font-family="sans-serif" font-size="13" lengthAdjust="spacing" textLength="71.1231" x="913" y="647.897">pulso_jogar</text></g><!--reverse link m4_game_init to m4_vitoria_final--><g class="link" data-entity-1="ent0016" data-entity-2="ent0028" data-link-type="dependency" data-source-line="122" id="lnk63"><path d="M736.5191,608.4616 C746.0191,624.1416 758.43,640.35 778,652 C840.92,689.45 868.7,665.33 940,682 C945.42,683.27 951.05,684.69 956.65,686.18" fill="none" id="m4_game_init-backto-m4_vitoria_final" style="stroke:#2F3B52;stroke-width:1;"/><polygon fill="#2F3B52" points="733.41,603.33,734.6525,613.1002,736.0009,607.6064,741.4947,608.9547,733.41,603.33" style="stroke:#2F3B52;stroke-width:1;"/><text fill="#000000" font-family="sans-serif" font-size="13" lengthAdjust="spacing" textLength="71.1231" x="779" y="647.897">pulso_jogar</text></g><!--link reg_cor_alvo to m4_game_init--><!--link compara_cor to fim_perto--><?plantuml-src ZPPBRzms483l_1Lq0WH9WKMpZm39mZOGEwjUYXvw3GA15cajQqbKHQxjeib_x_3za3RkQPSptmndo9cXZfmopFfH_OCfayt4HyN5W9GOiHBuJYWbUapvn1eZH_A13oEPI8-b8ehXVn76DwHvQ2Tn6kYjwCI4NrSVgq_LPwqH4sMJaswgxSs73KW_JvDuAeML6DGVf6UWvQH3SxUNbtT4ikjh_FfmUwYgzHBHRxO00B6jDjMNHS80469LRG_l5ucT9GuVgm-7Jql4FU_DBjNjONUuHJ_WLCnPy84t43lsaJhnAyawrX21Uq75Aqma1a6j5pDoOYsNQY8H1Kc1HbOoXKSujXC1xvQMgjOI8R4xZ9dd1awTT8_HEmXgBIWjc1mPy8htJ9oKmQseTY9iJnCL1b0pBXg7twdXVAA6nd_-TXFYcTgxHPF-H0d-_V0bm5gWwHdPY5wNg4xLW6wjCvqV8rmcPiz4sP1XLPiLTjUSOf1DWfdL4jQ9eMK1Cwj5RsHId9Bepwu36lBUwS9I-2_HsitxNTr2ezH6QkirOGc58XG30VzI1WD2QIqL6-TyBymzPBGyYgSpU4l6Z8Br71edyOorsgC3UrQ6dxEkQc2gk283_8bmLHl9d0-L4yfWL-TbKoQewoQ1ax9P2ZiBnCHzBX112NWM3o4AFI9gyR1m9wUU3OhWZWtfXS3ohDjxmhlSiPRCyKUk10nCgA2110Cdh8tGspWZwiT9SnIyYLr3axQUgNn7BQWOX0PpOr45StukrwVCUxW2c-Y27MJWpppeqDTVlk7LwZeCsJqs0n3vjTRvkGgv-WchnM66xl5uwgImJ93-n9BcTj22P48qwfC9jyVIog_m-nH9Hd90BZI34esFCipY5DsMP3O0adstAFDX4t2tYb2yu2HoBqgyR9R9BCSBZQ72nw9R_qzdV9wtpYEx3iwrnf-ER_6zdeLGEoWLceDnhOr2Z-Txv5wfU1f0dRuEUrWDztpguPhpEUJEVJ6CGkxG64moSvmkEYwtUI4eb2fMfz5SiPEXsATMam-mh51ADFPnNdaeAYoOlbHx_DQoL-jVD-_mcpVuBL5yQFcf3fybTK-UyVVlkE5D9-g1Fp8kpTuTK-BTpBqR6dlu6Eq9XwURI25D55gySW7O5tgFZV3ADbm6sBVP0PSctqnl7sMdlpQ9HhyQAePKFW3Y3lyBjPkzY1RASYIWzEHdWoLrXBBvu2ig-GX0wGT1eW_FFig-0LQ55hRJiRW7NPz-ZXSEzHT2OR56gN9r1jR_K--6ZSxZDqLkO9n7PMY5CdwxPd_xFHAJk4dIcZEhDK9vXxaNmxrUA7d8_FI83tbQUtCmVy3jpWOmMqEZmKyzcEOwkmryY2mONlpKCaltOcOSsWcbknGLfhzgye9C5E4sqbfCZYNeqmUky9KVpeiMnQFuzSWfPSEtYRT7LLZcqzMJBhtGzVy1?></g></svg>