<?plantuml 1.2026.2?><svg xmlns="http://www.w3.org/2000/svg" xmlns:xlink="http://www.w3.org/1999/xlink" contentStyleType="text/css" data-diagram-type="STATE" height="1424px" preserveAspectRatio="none" style="width:1930px;height:1424px;background:#FFFFFF;" version="1.1" viewBox="0 0 1930 1424" width="1930px" zoomAndPan="magnify"><defs/><g><rect fill="#ECEFF1" height="40" rx="12.5" ry="12.5" style="stroke:#2F3B52;stroke-width:0.5;" width="50" x="820" y="105"/><text fill="#000000" font-family="Arial" font-size="14" lengthAdjust="spacing" textLength="35.0137" x="827.4932" y="130.0825">inicial</text><rect fill="#ECEFF1" height="40" rx="12.5" ry="12.5" style="stroke:#2F3B52;stroke-width:0.5;" width="97.165" x="796.42" y="206"/><text fill="#000000" font-family="Arial" font-size="14" lengthAdjust="spacing" textLength="87.165" x="801.42" y="231.0825">selecao modo</text><rect fill="#ECEFF1" height="40" rx="12.5" ry="12.5" style="stroke:#2F3B52;stroke-width:0.5;" width="95.5928" x="768.2" y="325"/><text fill="#000000" font-family="Arial" font-size="14" lengthAdjust="spacing" textLength="85.5928" x="773.2" y="350.0825">registra modo</text><rect fill="#E3F2FD" height="40" rx="12.5" ry="12.5" style="stroke:#2F3B52;stroke-width:0.5;" width="110.4063" x="807.8" y="444"/><text fill="#000000" font-family="Arial" font-size="14" lengthAdjust="spacing" textLength="100.4063" x="812.8" y="469.0825">reset pontuacao</text><rect fill="#E3F2FD" height="40" rx="12.5" ry="12.5" style="stroke:#2F3B52;stroke-width:0.5;" width="109.5928" x="258.2" y="563"/><text fill="#000000" font-family="Arial" font-size="14" lengthAdjust="spacing" textLength="99.5928" x="263.2" y="588.0825">registra cor alvo</text><rect fill="#FFF3E0" height="40" rx="12.5" ry="12.5" style="stroke:#2F3B52;stroke-width:0.5;" width="102.6064" x="434.7" y="801"/><text fill="#000000" font-family="Arial" font-size="14" lengthAdjust="spacing" textLength="92.6064" x="439.7" y="826.0825">espera timeout</text><rect fill="#ECEFF1" height="40" rx="12.5" ry="12.5" style="stroke:#2F3B52;stroke-width:0.5;" width="91.7305" x="467.13" y="920"/><text fill="#000000" font-family="Arial" font-size="14" lengthAdjust="spacing" textLength="81.7305" x="472.13" y="945.0825">espera botao</text><rect fill="#ECEFF1" height="40" rx="12.5" ry="12.5" style="stroke:#2F3B52;stroke-width:0.5;" width="129.834" x="465.08" y="1039"/><text fill="#000000" font-family="Arial" font-size="14" lengthAdjust="spacing" textLength="119.834" x="470.08" y="1064.0825">registra botao RGB</text><rect fill="#ECEFF1" height="40" rx="12.5" ry="12.5" style="stroke:#2F3B52;stroke-width:0.5;" width="110.3721" x="386.81" y="1158"/><text fill="#000000" font-family="Arial" font-size="14" lengthAdjust="spacing" textLength="100.3721" x="391.81" y="1183.0825">muda LED RGB</text><rect fill="#ECEFF1" height="40" rx="12.5" ry="12.5" style="stroke:#2F3B52;stroke-width:0.5;" width="87.8066" x="688.1" y="1277"/><text fill="#000000" font-family="Arial" font-size="14" lengthAdjust="spacing" textLength="77.8066" x="693.1" y="1302.0825">compara cor</text><rect fill="#FCE4EC" height="40" rx="12.5" ry="12.5" style="stroke:#2F3B52;stroke-width:0.5;" width="66.7998" x="72.6" y="444"/><text fill="#000000" font-family="Arial" font-size="14" lengthAdjust="spacing" textLength="56.7998" x="77.6" y="469.0825">fim exato</text><rect fill="#FCE4EC" height="40" rx="12.5" ry="12.5" style="stroke:#2F3B52;stroke-width:0.5;" width="64.4619" x="204.77" y="1378"/><text fill="#000000" font-family="Arial" font-size="14" lengthAdjust="spacing" textLength="54.4619" x="209.77" y="1403.0825">fim perto</text><rect fill="#FCE4EC" height="40" rx="12.5" ry="12.5" style="stroke:#2F3B52;stroke-width:0.5;" width="66.8066" x="241.6" y="444"/><text fill="#000000" font-family="Arial" font-size="14" lengthAdjust="spacing" textLength="56.8066" x="246.6" y="469.0825">fim longe</text><rect fill="#FCE4EC" height="40" rx="12.5" ry="12.5" style="stroke:#2F3B52;stroke-width:0.5;" width="75.3584" x="515.32" y="325"/><text fill="#000000" font-family="Arial" font-size="14" lengthAdjust="spacing" textLength="65.3584" x="520.32" y="350.0825">fim partida</text><rect fill="#E8F5E9" height="40" rx="12.5" ry="12.5" style="stroke:#2F3B52;stroke-width:0.5;" width="81.5928" x="825.2" y="563"/><text fill="#000000" font-family="Arial" font-size="14" lengthAdjust="spacing" textLength="71.5928" x="830.2" y="588.0825">m4 init jogo</text><rect fill="#E8F5E9" height="40" rx="12.5" ry="12.5" style="stroke:#2F3B52;stroke-width:0.5;" width="126.7373" x="942.63" y="682"/><text fill="#000000" font-family="Arial" font-size="14" lengthAdjust="spacing" textLength="116.7373" x="947.63" y="707.0825">m4 adiciona passo</text><rect fill="#E8F5E9" height="40" rx="12.5" ry="12.5" style="stroke:#2F3B52;stroke-width:0.5;" width="117.3721" x="947.31" y="801"/><text fill="#000000" font-family="Arial" font-size="14" lengthAdjust="spacing" textLength="107.3721" x="952.31" y="826.0825">m4 mostra passo</text><rect fill="#E8F5E9" height="40" rx="12.5" ry="12.5" style="stroke:#2F3B52;stroke-width:0.5;" width="56.6963" x="914.65" y="920"/><text fill="#000000" font-family="Arial" font-size="14" lengthAdjust="spacing" textLength="46.6963" x="919.65" y="945.0825">m4 gap</text><rect fill="#E8F5E9" height="40" rx="12.5" ry="12.5" style="stroke:#2F3B52;stroke-width:0.5;" width="97.1445" x="955.43" y="1039"/><text fill="#000000" font-family="Arial" font-size="14" lengthAdjust="spacing" textLength="87.1445" x="960.43" y="1064.0825">m4 prox show</text><rect fill="#E8F5E9" height="40" rx="12.5" ry="12.5" style="stroke:#2F3B52;stroke-width:0.5;" width="110.3926" x="948.8" y="1158"/><text fill="#000000" font-family="Arial" font-size="14" lengthAdjust="spacing" textLength="100.3926" x="953.8" y="1183.0825">m4 espera input</text><rect fill="#E8F5E9" height="40" rx="12.5" ry="12.5" style="stroke:#2F3B52;stroke-width:0.5;" width="114.248" x="1002.88" y="1277"/><text fill="#000000" font-family="Arial" font-size="14" lengthAdjust="spacing" textLength="104.248" x="1007.88" y="1302.0825">m4 registra RGB</text><rect fill="#E8F5E9" height="40" rx="12.5" ry="12.5" style="stroke:#2F3B52;stroke-width:0.5;" width="102.5859" x="935.71" y="1378"/><text fill="#000000" font-family="Arial" font-size="14" lengthAdjust="spacing" textLength="92.5859" x="940.71" y="1403.0825">m4 muda RGB</text><rect fill="#E8F5E9" height="40" rx="12.5" ry="12.5" style="stroke:#2F3B52;stroke-width:0.5;" width="94.8203" x="1159.59" y="444"/><text fill="#000000" font-family="Arial" font-size="14" lengthAdjust="spacing" textLength="84.8203" x="1164.59" y="469.0825">m4 prox input</text><rect fill="#E8F5E9" height="40" rx="12.5" ry="12.5" style="stroke:#2F3B52;stroke-width:0.5;" width="95.6064" x="1482.2" y="682"/><text fill="#000000" font-family="Arial" font-size="14" lengthAdjust="spacing" textLength="85.6064" x="1487.2" y="707.0825">m4 rodada ok</text><rect fill="#E8F5E9" height="40" rx="12.5" ry="12.5" style="stroke:#2F3B52;stroke-width:0.5;" width="110.3926" x="1338.8" y="801"/><text fill="#000000" font-family="Arial" font-size="14" lengthAdjust="spacing" textLength="100.3926" x="1343.8" y="826.0825">m4 aumenta len</text><rect fill="#E8F5E9" height="40" rx="12.5" ry="12.5" style="stroke:#2F3B52;stroke-width:0.5;" width="98.7168" x="1319.64" y="682"/><text fill="#000000" font-family="Arial" font-size="14" lengthAdjust="spacing" textLength="88.7168" x="1324.64" y="707.0825">m4 rodada fail</text><rect fill="#E8F5E9" height="40" rx="12.5" ry="12.5" style="stroke:#2F3B52;stroke-width:0.5;" width="100.2549" x="1137.87" y="682"/><text fill="#000000" font-family="Arial" font-size="14" lengthAdjust="spacing" textLength="90.2549" x="1142.87" y="707.0825">m4 vitoria final</text><g class="entity" data-qualified-name="d_modo" id="ent0029"><polygon fill="#F1F1F1" points="962,333,974,345,962,357,950,345,962,333" style="stroke:#181818;stroke-width:0.5;"/></g><g class="entity" data-qualified-name="d_timeout" id="ent0030"><polygon fill="#F1F1F1" points="325,690,337,702,325,714,313,702,325,690" style="stroke:#181818;stroke-width:0.5;"/></g><g class="entity" data-qualified-name="d_compara" id="ent0031"><polygon fill="#F1F1F1" points="778,571,790,583,778,595,766,583,778,571" style="stroke:#181818;stroke-width:0.5;"/></g><g class="entity" data-qualified-name="d_end_m23" id="ent0032"><polygon fill="#F1F1F1" points="381,452,393,464,381,476,369,464,381,452" style="stroke:#181818;stroke-width:0.5;"/></g><g class="entity" data-qualified-name="d_erro" id="ent0033"><polygon fill="#F1F1F1" points="113,333,125,345,113,357,101,345,113,333" style="stroke:#181818;stroke-width:0.5;"/></g><g class="entity" data-qualified-name="d_m4_input" id="ent0034"><polygon fill="#F1F1F1" points="1448,571,1460,583,1448,595,1436,583,1448,571" style="stroke:#181818;stroke-width:0.5;"/></g><g class="start_entity" data-qualified-name=".start." data-source-line="56" id="ent0002"><ellipse cx="845" cy="16" fill="#222222" rx="10" ry="10" style="stroke:#222222;stroke-width:1;"/></g><!--link *start* to inicial--><g class="link" data-entity-1="ent0002" data-entity-2="ent0002" data-link-type="dependency" data-source-line="56" id="lnk3"><path d="M845,26.5 C845,43.99 845,75.62 845,98.68" fill="none" id="*start*-to-inicial" style="stroke:#2F3B52;stroke-width:1;"/><polygon fill="#2F3B52" points="845,104.68,849,95.68,845,99.68,841,95.68,845,104.68" style="stroke:#2F3B52;stroke-width:1;"/><text fill="#000000" font-family="sans-serif" font-size="13" lengthAdjust="spacing" textLength="30.953" x="846" y="70.897">reset</text></g><!--link inicial to sel_modo--><g class="link" data-entity-1="ent0002" data-entity-2="ent0003" data-link-type="dependency" data-source-line="57" id="lnk4"><path d="M845,145.09 C845,162.51 845,182.13 845,199.63" fill="none" id="inicial-to-sel_modo" style="stroke:#2F3B52;stroke-width:1;"/><polygon fill="#2F3B52" points="845,205.63,849,196.63,845,200.63,841,196.63,845,205.63" style="stroke:#2F3B52;stroke-width:1;"/></g><!--link sel_modo to reg_modo--><g class="link" data-entity-1="ent0003" data-entity-2="ent0004" data-link-type="dependency" data-source-line="59" id="lnk5"><path d="M840.21,246.32 C834.84,268 827.6119,297.1358 822.2419,318.8258" fill="none" id="sel_modo-to-reg_modo" style="stroke:#2F3B52;stroke-width:1;"/><polygon fill="#2F3B52" points="820.8,324.65,826.8457,316.8751,822.0016,319.7965,819.0801,314.9525,820.8,324.65" style="stroke:#2F3B52;stroke-width:1;"/><text fill="#000000" font-family="sans-serif" font-size="13" lengthAdjust="spacing" textLength="75.1271" x="833.24" y="290.897">pulso_modo</text></g><!--link reg_modo to sel_modo--><g class="link" data-entity-1="ent0004" data-entity-2="ent0003" data-link-type="dependency" data-source-line="60" id="lnk6"><path d="M815.48,324.62 C815.58,310.83 816.67,292 821,276 C823.77,265.76 825.8802,260.3908 830.5602,251.6408" fill="none" id="reg_modo-to-sel_modo" style="stroke:#2F3B52;stroke-width:1;"/><polygon fill="#2F3B52" points="833.39,246.35,825.6181,252.3996,831.0318,250.759,832.6725,256.1727,833.39,246.35" style="stroke:#2F3B52;stroke-width:1;"/></g><!--link sel_modo to d_modo--><g class="link" data-entity-1="ent0003" data-entity-2="ent0029" data-link-type="dependency" data-source-line="62" id="lnk7"><path d="M879.32,246.47 C892,254.62 905.95,264.81 917,276 C935.9,295.14 948.7889,317.9927 955.5989,331.2527" fill="none" id="sel_modo-to-d_modo" style="stroke:#2F3B52;stroke-width:1;"/><polygon fill="#2F3B52" points="958.34,336.59,957.7866,326.7567,956.0558,332.1423,950.6702,330.4115,958.34,336.59" style="stroke:#2F3B52;stroke-width:1;"/><text fill="#000000" font-family="sans-serif" font-size="13" lengthAdjust="spacing" textLength="71.1231" x="933.8" y="290.897">pulso_jogar</text></g><!--link d_modo to espera_btn--><g class="link" data-entity-1="ent0029" data-entity-2="ent0008" data-link-type="dependency" data-source-line="63" id="lnk8"><path d="M957.93,353.22 C949.65,367.19 929.49,397.99 904,414 C859.64,441.87 836.2,419.29 790,444 C722.98,479.85 689,505.99 689,582 C689,582 689,582 689,822 C689,884.37 617.1881,913.9568 565.0381,927.8368" fill="none" id="d_modo-to-espera_btn" style="stroke:#2F3B52;stroke-width:1;"/><polygon fill="#2F3B52" points="559.24,929.38,568.966,930.9306,564.0718,928.094,566.9084,923.1998,559.24,929.38" style="stroke:#2F3B52;stroke-width:1;"/><text fill="#000000" font-family="sans-serif" font-size="13" lengthAdjust="spacing" textLength="69.5111" x="690" y="647.897">s_modo = 0</text></g><!--link d_modo to rst_pontos--><g class="link" data-entity-1="ent0029" data-entity-2="ent0005" data-link-type="dependency" data-source-line="64" id="lnk9"><path d="M963.15,356.23 C964.21,370.49 964.11,396.55 952,414 C943.25,426.61 935.4426,433.4365 921.9826,440.7465" fill="none" id="d_modo-to-rst_pontos" style="stroke:#2F3B52;stroke-width:1;"/><polygon fill="#2F3B52" points="916.71,443.61,926.5279,442.8298,921.1038,441.2237,922.7099,435.7997,916.71,443.61" style="stroke:#2F3B52;stroke-width:1;"/><text fill="#000000" font-family="sans-serif" font-size="13" lengthAdjust="spacing" textLength="73.0081" x="961.23" y="409.897">s_modo != 0</text></g><!--link rst_pontos to reg_cor_alvo--><g class="link" data-entity-1="ent0005" data-entity-2="ent0006" data-link-type="dependency" data-source-line="66" id="lnk10"><path d="M807.33,471.37 C743.7,479.16 636.65,493.86 546,514 C484.3,527.71 420.6237,546.8686 373.7337,561.8986" fill="none" id="rst_pontos-to-reg_cor_alvo" style="stroke:#2F3B52;stroke-width:1;"/><polygon fill="#2F3B52" points="368.02,563.73,377.8114,564.7919,372.7814,562.2038,375.3695,557.1737,368.02,563.73" style="stroke:#2F3B52;stroke-width:1;"/><text fill="#000000" font-family="sans-serif" font-size="13" lengthAdjust="spacing" textLength="73.0081" x="547" y="528.897">s_modo != 3</text></g><!--link rst_pontos to m4_game_init--><g class="link" data-entity-1="ent0005" data-entity-2="ent0016" data-link-type="dependency" data-source-line="67" id="lnk11"><path d="M860.53,484.35 C859.11,497.96 857.83,516.6 859,533 C859.69,542.77 860.2273,547.6329 861.6373,556.5929" fill="none" id="rst_pontos-to-m4_game_init" style="stroke:#2F3B52;stroke-width:1;"/><polygon fill="#2F3B52" points="862.57,562.52,865.1223,553.0076,861.7927,557.5808,857.2195,554.2512,862.57,562.52" style="stroke:#2F3B52;stroke-width:1;"/><text fill="#000000" font-family="sans-serif" font-size="13" lengthAdjust="spacing" textLength="69.5111" x="860" y="528.897">s_modo = 3</text></g><!--link reg_cor_alvo to d_timeout--><g class="link" data-entity-1="ent0006" data-entity-2="ent0030" data-link-type="dependency" data-source-line="68" id="lnk12"><path d="M314.98,603.32 C317.54,628.24 321.2904,664.7611 323.3004,684.4411" fill="none" id="reg_cor_alvo-to-d_timeout" style="stroke:#2F3B52;stroke-width:1;"/><polygon fill="#2F3B52" points="323.91,690.41,326.9748,681.0502,323.402,685.4359,319.0163,681.863,323.91,690.41" style="stroke:#2F3B52;stroke-width:1;"/></g><!--link d_timeout to espera_timeout--><g class="link" data-entity-1="ent0030" data-entity-2="ent0007" data-link-type="dependency" data-source-line="70" id="lnk13"><path d="M331.51,707.73 C352.81,723.21 416.3665,769.3925 454.6165,797.1925" fill="none" id="d_timeout-to-espera_timeout" style="stroke:#2F3B52;stroke-width:1;"/><polygon fill="#2F3B52" points="459.47,800.72,454.5414,792.193,455.4254,797.7804,449.838,798.6644,459.47,800.72" style="stroke:#2F3B52;stroke-width:1;"/><text fill="#000000" font-family="sans-serif" font-size="13" lengthAdjust="spacing" textLength="69.5111" x="416.14" y="766.897">s_modo = 2</text></g><!--link d_timeout to espera_btn--><g class="link" data-entity-1="ent0030" data-entity-2="ent0008" data-link-type="dependency" data-source-line="71" id="lnk14"><path d="M323.4,713.05 C320.08,737.33 314.88,800.19 342,841 C371.07,884.75 421.1077,909.2571 461.0377,923.4771" fill="none" id="d_timeout-to-espera_btn" style="stroke:#2F3B52;stroke-width:1;"/><polygon fill="#2F3B52" points="466.69,925.49,459.5535,918.7025,461.9798,923.8126,456.8697,926.2388,466.69,925.49" style="stroke:#2F3B52;stroke-width:1;"/><text fill="#000000" font-family="sans-serif" font-size="13" lengthAdjust="spacing" textLength="73.0081" x="343" y="826.397">s_modo != 2</text></g><!--link espera_timeout to espera_timeout--><g class="link" data-entity-1="ent0007" data-entity-2="ent0007" data-link-type="dependency" data-source-line="73" id="lnk15"><path d="M537.39,809.87 C556.54,809.5 572.3,813.21 572.3,821 C572.3,828.79 562.5389,832.6159 543.3889,832.2459" fill="none" id="espera_timeout-to-espera_timeout" style="stroke:#2F3B52;stroke-width:1;"/><polygon fill="#2F3B52" points="537.39,832.13,546.3111,836.3031,542.3891,832.2266,546.4656,828.3046,537.39,832.13" style="stroke:#2F3B52;stroke-width:1;"/><text fill="#000000" font-family="sans-serif" font-size="13" lengthAdjust="spacing" textLength="69.7581" x="578.3" y="826.397">timeout = 0</text></g><!--link espera_timeout to espera_btn--><g class="link" data-entity-1="ent0007" data-entity-2="ent0008" data-link-type="dependency" data-source-line="74" id="lnk16"><path d="M490.46,841.32 C495.46,863 502.1822,892.1133 507.1822,913.8033" fill="none" id="espera_timeout-to-espera_btn" style="stroke:#2F3B52;stroke-width:1;"/><polygon fill="#2F3B52" points="508.53,919.65,510.4061,909.9815,507.4069,914.7778,502.6106,911.7785,508.53,919.65" style="stroke:#2F3B52;stroke-width:1;"/><text fill="#000000" font-family="sans-serif" font-size="13" lengthAdjust="spacing" textLength="69.7581" x="502.12" y="885.897">timeout = 1</text></g><!--link espera_btn to reg_rgb_btn--><g class="link" data-entity-1="ent0008" data-entity-2="ent0009" data-link-type="dependency" data-source-line="76" id="lnk17"><path d="M515.81,960.32 C518.96,982 523.1777,1011.0223 526.3277,1032.7123" fill="none" id="espera_btn-to-reg_rgb_btn" style="stroke:#2F3B52;stroke-width:1;"/><polygon fill="#2F3B52" points="527.19,1038.65,529.855,1029.1686,526.4714,1033.7019,521.938,1030.3183,527.19,1038.65" style="stroke:#2F3B52;stroke-width:1;"/><text fill="#000000" font-family="sans-serif" font-size="13" lengthAdjust="spacing" textLength="41.795" x="523.52" y="1004.897">jogada</text></g><!--link reg_rgb_btn to muda_rgb--><g class="link" data-entity-1="ent0009" data-entity-2="ent0010" data-link-type="dependency" data-source-line="77" id="lnk18"><path d="M515.47,1079.32 C499.16,1101 476.4774,1131.1656 460.1574,1152.8556" fill="none" id="reg_rgb_btn-to-muda_rgb" style="stroke:#2F3B52;stroke-width:1;"/><polygon fill="#2F3B52" points="456.55,1157.65,465.1574,1152.8633,459.5562,1153.6546,458.7649,1148.0534,456.55,1157.65" style="stroke:#2F3B52;stroke-width:1;"/></g><!--link muda_rgb to espera_btn--><g class="link" data-entity-1="ent0010" data-entity-2="ent0008" data-link-type="dependency" data-source-line="78" id="lnk19"><path d="M439.65,1157.68 C437.05,1130.45 434.79,1079.59 448,1039 C457.85,1008.71 475.9805,983.5439 491.6405,964.9039" fill="none" id="muda_rgb-to-espera_btn" style="stroke:#2F3B52;stroke-width:1;"/><polygon fill="#2F3B52" points="495.5,960.31,486.6481,964.6279,492.2838,964.1383,492.7734,969.7739,495.5,960.31" style="stroke:#2F3B52;stroke-width:1;"/></g><!--link espera_btn to compara_cor--><g class="link" data-entity-1="ent0008" data-entity-2="ent0011" data-link-type="dependency" data-source-line="80" id="lnk20"><path d="M539.97,960.47 C551.02,968.99 563.62,979.44 574,990 C660.97,1078.47 709.0272,1218.8157 724.7672,1270.9957" fill="none" id="espera_btn-to-compara_cor" style="stroke:#2F3B52;stroke-width:1;"/><polygon fill="#2F3B52" points="726.5,1276.74,727.7304,1266.9683,725.056,1271.953,720.0713,1269.2787,726.5,1276.74" style="stroke:#2F3B52;stroke-width:1;"/><text fill="#000000" font-family="sans-serif" font-size="13" lengthAdjust="spacing" textLength="60.151" x="667.9" y="1123.897">confirmar</text></g><!--link m4_wait_input to m4_reg_rgb_btn--><g class="link" data-entity-1="ent0021" data-entity-2="ent0022" data-link-type="dependency" data-source-line="81" id="lnk21"><path d="M1013.25,1198.32 C1023.62,1220 1037.7699,1249.5478 1048.1499,1271.2378" fill="none" id="m4_wait_input-to-m4_reg_rgb_btn" style="stroke:#2F3B52;stroke-width:1;"/><polygon fill="#2F3B52" points="1050.74,1276.65,1050.463,1266.805,1048.5816,1272.1399,1043.2468,1270.2584,1050.74,1276.65" style="stroke:#2F3B52;stroke-width:1;"/><text fill="#000000" font-family="sans-serif" font-size="13" lengthAdjust="spacing" textLength="41.795" x="1036.35" y="1242.897">jogada</text></g><!--link m4_reg_rgb_btn to m4_muda_rgb--><g class="link" data-entity-1="ent0022" data-entity-2="ent0023" data-link-type="dependency" data-source-line="82" id="lnk22"><path d="M1045.92,1317.09 C1033.08,1334.51 1017.7519,1355.3017 1004.8419,1372.8017" fill="none" id="m4_reg_rgb_btn-to-m4_muda_rgb" style="stroke:#2F3B52;stroke-width:1;"/><polygon fill="#2F3B52" points="1001.28,1377.63,1009.8418,1372.7621,1004.2483,1373.6064,1003.404,1368.0129,1001.28,1377.63" style="stroke:#2F3B52;stroke-width:1;"/></g><!--link m4_muda_rgb to m4_wait_input--><g class="link" data-entity-1="ent0023" data-entity-2="ent0021" data-link-type="dependency" data-source-line="83" id="lnk23"><path d="M986.38,1377.6 C985.89,1361.4 985.26,1337.7 985,1317 C984.78,1299.22 983.3,1294.7 985,1277 C987.65,1249.4 993.0149,1223.8556 997.7149,1204.1956" fill="none" id="m4_muda_rgb-to-m4_wait_input" style="stroke:#2F3B52;stroke-width:1;"/><polygon fill="#2F3B52" points="999.11,1198.36,993.127,1206.1833,997.9474,1203.223,1000.9078,1208.0434,999.11,1198.36" style="stroke:#2F3B52;stroke-width:1;"/></g><!--link m4_wait_input to compara_cor--><g class="link" data-entity-1="ent0021" data-entity-2="ent0011" data-link-type="dependency" data-source-line="84" id="lnk24"><path d="M948.31,1196.08 C921.81,1204.74 889.9,1215.97 862,1228 C828.44,1242.47 796.8877,1259.1631 771.0477,1273.6031" fill="none" id="m4_wait_input-to-compara_cor" style="stroke:#2F3B52;stroke-width:1;"/><polygon fill="#2F3B52" points="765.81,1276.53,775.6178,1275.6314,770.1747,1274.0909,771.7152,1268.6478,765.81,1276.53" style="stroke:#2F3B52;stroke-width:1;"/><text fill="#000000" font-family="sans-serif" font-size="13" lengthAdjust="spacing" textLength="60.151" x="863" y="1242.897">confirmar</text></g><!--reverse link d_compara to compara_cor--><g class="link" data-entity-1="ent0031" data-entity-2="ent0011" data-link-type="dependency" data-source-line="86" id="lnk26"><path d="M779.1678,600.6261 C780.5678,621.1761 783,661.76 783,701 C783,701 783,701 783,1179 C783,1216 761.3,1254.52 746.21,1276.83" fill="none" id="d_compara-backto-compara_cor" style="stroke:#2F3B52;stroke-width:1;"/><polygon fill="#2F3B52" points="778.76,594.64,775.381,603.8911,779.0998,599.6284,783.3625,603.3473,778.76,594.64" style="stroke:#2F3B52;stroke-width:1;"/></g><!--reverse link m4_next_input to d_compara--><g class="link" data-entity-1="ent0024" data-entity-2="ent0031" data-link-type="dependency" data-source-line="87" id="lnk28"><path d="M1153.3815,478.5345 C1098.9115,492.2445 1013.01,513.75 934,533 C878.07,546.62 861.04,540.63 808,563 C799.37,566.64 790.41,572.66 784.56,576.94" fill="none" id="m4_next_input-backto-d_compara" style="stroke:#2F3B52;stroke-width:1;"/><polygon fill="#2F3B52" points="1159.2,477.07,1149.4959,475.3878,1154.3512,478.2904,1151.4486,483.1458,1159.2,477.07" style="stroke:#2F3B52;stroke-width:1;"/><text fill="#000000" font-family="sans-serif" font-size="13" lengthAdjust="spacing" textLength="69.5111" x="1010.04" y="528.897">s_modo = 3</text></g><!--reverse link d_end_m23 to d_compara--><g class="link" data-entity-1="ent0032" data-entity-2="ent0031" data-link-type="dependency" data-source-line="88" id="lnk30"><path d="M397.0887,466.8426 C431.2687,470.8726 539.19,485.07 629,514 C685.57,532.22 749.08,566.01 770.5,577.81" fill="none" id="d_end_m23-backto-d_compara" style="stroke:#2F3B52;stroke-width:1;"/><polygon fill="#2F3B52" points="391.13,466.14,399.5997,471.1663,396.0956,466.7255,400.5365,463.2214,391.13,466.14" style="stroke:#2F3B52;stroke-width:1;"/><text fill="#000000" font-family="sans-serif" font-size="13" lengthAdjust="spacing" textLength="73.0081" x="676.28" y="528.897">s_modo != 3</text></g><!--reverse link fim_partida to d_end_m23--><g class="link" data-entity-1="ent0015" data-entity-2="ent0032" data-link-type="dependency" data-source-line="90" id="lnk32"><path d="M509.0125,352.1801 C462.6825,359.4501 394.49,373.26 378,395 C364.57,412.7 372.49,441.08 377.64,454.9" fill="none" id="fim_partida-backto-d_end_m23" style="stroke:#2F3B52;stroke-width:1;"/><polygon fill="#2F3B52" points="514.94,351.25,505.4287,348.6935,510.0004,352.0251,506.6689,356.5968,514.94,351.25" style="stroke:#2F3B52;stroke-width:1;"/><text fill="#000000" font-family="sans-serif" font-size="13" lengthAdjust="spacing" textLength="414.4404" x="379" y="409.897">(s_modo=1/2) &amp;&amp; (atingiu_pontuacao_max || ciclo_niveis_completo)</text></g><!--reverse link d_erro to d_end_m23--><g class="link" data-entity-1="ent0033" data-entity-2="ent0032" data-link-type="dependency" data-source-line="91" id="lnk34"><path d="M126.5184,351.9015 C165.9684,369.1315 333.63,442.32 373.01,459.51" fill="none" id="d_erro-backto-d_end_m23" style="stroke:#2F3B52;stroke-width:1;"/><polygon fill="#2F3B52" points="121.02,349.5,127.6667,356.7678,125.602,351.5012,130.8687,349.4366,121.02,349.5" style="stroke:#2F3B52;stroke-width:1;"/><text fill="#000000" font-family="sans-serif" font-size="13" lengthAdjust="spacing" textLength="81.5881" x="264.05" y="409.897">demais casos</text></g><!--link d_erro to fim_exato--><g class="link" data-entity-1="ent0033" data-entity-2="ent0012" data-link-type="dependency" data-source-line="93" id="lnk35"><path d="M105.9,350 C93.95,357.2 70.24,373.59 61,395 C53.43,412.55 61.9728,426.3964 75.8928,439.4464" fill="none" id="d_erro-to-fim_exato" style="stroke:#2F3B52;stroke-width:1;"/><polygon fill="#2F3B52" points="80.27,443.55,76.4399,434.4764,76.6223,440.1303,70.9684,440.3127,80.27,443.55" style="stroke:#2F3B52;stroke-width:1;"/><text fill="#000000" font-family="sans-serif" font-size="13" lengthAdjust="spacing" textLength="55.003" x="62" y="409.897">erro == 0</text></g><!--link d_erro to fim_perto--><g class="link" data-entity-1="ent0033" data-entity-2="ent0013" data-link-type="dependency" data-source-line="94" id="lnk36"><path d="M105.3,349.66 C80.77,361.91 6,404.09 6,463 C6,463 6,463 6,1298 C6,1383.3 134.7212,1395.9303 198.3912,1397.2003" fill="none" id="d_erro-to-fim_perto" style="stroke:#2F3B52;stroke-width:1;"/><polygon fill="#2F3B52" points="204.39,1397.32,195.4716,1393.1413,199.391,1397.2203,195.312,1401.1397,204.39,1397.32" style="stroke:#2F3B52;stroke-width:1;"/><text fill="#000000" font-family="sans-serif" font-size="13" lengthAdjust="spacing" textLength="47.567" x="7" y="885.897">erro &lt; 3</text></g><!--link d_erro to fim_longe--><g class="link" data-entity-1="ent0033" data-entity-2="ent0014" data-link-type="dependency" data-source-line="95" id="lnk37"><path d="M116.3,353.81 C122.53,367.7 137.28,396.85 158,414 C182.34,434.15 210.412,445.3893 235.432,452.8793" fill="none" id="d_erro-to-fim_longe" style="stroke:#2F3B52;stroke-width:1;"/><polygon fill="#2F3B52" points="241.18,454.6,233.7052,448.1869,236.39,453.1661,231.4109,455.8509,241.18,454.6" style="stroke:#2F3B52;stroke-width:1;"/><text fill="#000000" font-family="sans-serif" font-size="13" lengthAdjust="spacing" textLength="55.003" x="159" y="409.897">erro &gt;= 3</text></g><!--link fim_exato to reg_cor_alvo--><g class="link" data-entity-1="ent0012" data-entity-2="ent0006" data-link-type="dependency" data-source-line="97" id="lnk38"><path d="M113.71,484.43 C120.73,499.74 132.53,520.51 149,533 C180.61,556.96 217.9489,568.1748 252.0989,574.4548" fill="none" id="fim_exato-to-reg_cor_alvo" style="stroke:#2F3B52;stroke-width:1;"/><polygon fill="#2F3B52" points="258,575.54,249.8719,569.9782,253.0825,574.6357,248.425,577.8463,258,575.54" style="stroke:#2F3B52;stroke-width:1;"/><text fill="#000000" font-family="sans-serif" font-size="13" lengthAdjust="spacing" textLength="133.6921" x="150" y="528.897">timeout_resultado = 1</text></g><!--link fim_perto to reg_cor_alvo--><g class="link" data-entity-1="ent0013" data-entity-2="ent0006" data-link-type="dependency" data-source-line="98" id="lnk39"><path d="M237,1377.65 C237,1357.69 237,1325.67 237,1298 C237,701 237,701 237,701 C237,661.52 263.4735,629.0267 285.8635,607.6167" fill="none" id="fim_perto-to-reg_cor_alvo" style="stroke:#2F3B52;stroke-width:1;"/><polygon fill="#2F3B52" points="290.2,603.47,280.9308,606.799,286.5863,606.9256,286.4597,612.581,290.2,603.47" style="stroke:#2F3B52;stroke-width:1;"/><text fill="#000000" font-family="sans-serif" font-size="13" lengthAdjust="spacing" textLength="133.6921" x="238" y="1004.897">timeout_resultado = 1</text></g><!--link fim_longe to reg_cor_alvo--><g class="link" data-entity-1="ent0014" data-entity-2="ent0006" data-link-type="dependency" data-source-line="99" id="lnk40"><path d="M281.27,484.32 C288.32,506 297.8153,535.2539 304.8653,556.9439" fill="none" id="fim_longe-to-reg_cor_alvo" style="stroke:#2F3B52;stroke-width:1;"/><polygon fill="#2F3B52" points="306.72,562.65,307.7421,552.8543,305.1744,557.8949,300.1339,555.3272,306.72,562.65" style="stroke:#2F3B52;stroke-width:1;"/><text fill="#000000" font-family="sans-serif" font-size="13" lengthAdjust="spacing" textLength="133.6921" x="297.28" y="528.897">timeout_resultado = 1</text></g><!--link fim_partida to rst_pontos--><g class="link" data-entity-1="ent0015" data-entity-2="ent0005" data-link-type="dependency" data-source-line="100" id="lnk41"><path d="M591.08,346.63 C641.42,348.96 731.48,358.43 798,395 C819.47,406.8 834.4846,423.3241 846.2346,438.9541" fill="none" id="fim_partida-to-rst_pontos" style="stroke:#2F3B52;stroke-width:1;"/><polygon fill="#2F3B52" points="849.84,443.75,847.6292,434.1525,846.8355,439.7534,841.2346,438.9597,849.84,443.75" style="stroke:#2F3B52;stroke-width:1;"/><text fill="#000000" font-family="sans-serif" font-size="13" lengthAdjust="spacing" textLength="71.1231" x="823.67" y="409.897">pulso_jogar</text></g><!--link m4_game_init to m4_add_step--><g class="link" data-entity-1="ent0016" data-entity-2="ent0017" data-link-type="dependency" data-source-line="102" id="lnk42"><path d="M889.12,603.32 C915.06,625 952.2856,656.113 978.2456,677.803" fill="none" id="m4_game_init-to-m4_add_step" style="stroke:#2F3B52;stroke-width:1;"/><polygon fill="#2F3B52" points="982.85,681.65,978.5081,672.8099,979.013,678.4441,973.3787,678.949,982.85,681.65" style="stroke:#2F3B52;stroke-width:1;"/></g><!--link m4_add_step to m4_show_step--><g class="link" data-entity-1="ent0017" data-entity-2="ent0018" data-link-type="dependency" data-source-line="103" id="lnk43"><path d="M1006,722.32 C1006,744 1006,772.96 1006,794.65" fill="none" id="m4_add_step-to-m4_show_step" style="stroke:#2F3B52;stroke-width:1;"/><polygon fill="#2F3B52" points="1006,800.65,1010,791.65,1006,795.65,1002,791.65,1006,800.65" style="stroke:#2F3B52;stroke-width:1;"/></g><!--link m4_show_step to m4_show_step--><g class="link" data-entity-1="ent0018" data-entity-2="ent0018" data-link-type="dependency" data-source-line="104" id="lnk44"><path d="M1065.01,809.84 C1084.31,809.9 1099.69,813.62 1099.69,821 C1099.69,828.38 1090.31,832.0813 1071.01,832.1413" fill="none" id="m4_show_step-to-m4_show_step" style="stroke:#2F3B52;stroke-width:1;"/><polygon fill="#2F3B52" points="1065.01,832.16,1074.0224,836.132,1070.01,832.1445,1073.9975,828.132,1065.01,832.16" style="stroke:#2F3B52;stroke-width:1;"/><text fill="#000000" font-family="sans-serif" font-size="13" lengthAdjust="spacing" textLength="90.1941" x="1105.69" y="826.397">fim_t_show = 0</text></g><!--link m4_show_step to m4_show_gap--><g class="link" data-entity-1="ent0018" data-entity-2="ent0019" data-link-type="dependency" data-source-line="105" id="lnk45"><path d="M995.6,841.32 C983.92,863 967.9447,892.6773 956.2647,914.3673" fill="none" id="m4_show_step-to-m4_show_gap" style="stroke:#2F3B52;stroke-width:1;"/><polygon fill="#2F3B52" points="953.42,919.65,961.2089,913.6224,955.7906,915.2477,954.1653,909.8294,953.42,919.65" style="stroke:#2F3B52;stroke-width:1;"/><text fill="#000000" font-family="sans-serif" font-size="13" lengthAdjust="spacing" textLength="90.1941" x="979.27" y="885.897">fim_t_show = 1</text></g><!--link m4_show_gap to m4_show_gap--><g class="link" data-entity-1="ent0019" data-entity-2="ent0019" data-link-type="dependency" data-source-line="106" id="lnk46"><path d="M971.67,929.63 C989.44,927.13 1006.35,930.59 1006.35,940 C1006.35,949.41 995.3815,953.7059 977.6115,951.2059" fill="none" id="m4_show_gap-to-m4_show_gap" style="stroke:#2F3B52;stroke-width:1;"/><polygon fill="#2F3B52" points="971.67,950.37,980.025,955.5848,976.6212,951.0666,981.1395,947.6628,971.67,950.37" style="stroke:#2F3B52;stroke-width:1;"/><text fill="#000000" font-family="sans-serif" font-size="13" lengthAdjust="spacing" textLength="81.1331" x="1012.35" y="945.397">fim_t_gap = 0</text></g><!--link m4_show_gap to m4_next_show--><g class="link" data-entity-1="ent0019" data-entity-2="ent0020" data-link-type="dependency" data-source-line="107" id="lnk47"><path d="M953.07,960.32 C964.38,982 979.8259,1011.6398 991.1359,1033.3298" fill="none" id="m4_show_gap-to-m4_next_show" style="stroke:#2F3B52;stroke-width:1;"/><polygon fill="#2F3B52" points="993.91,1038.65,993.2956,1028.8203,991.5982,1034.2165,986.202,1032.5192,993.91,1038.65" style="stroke:#2F3B52;stroke-width:1;"/><text fill="#000000" font-family="sans-serif" font-size="13" lengthAdjust="spacing" textLength="81.1331" x="978.15" y="1004.897">fim_t_gap = 1</text></g><!--reverse link m4_show_step to m4_next_show--><g class="link" data-entity-1="ent0018" data-entity-2="ent0020" data-link-type="dependency" data-source-line="108" id="lnk49"><path d="M1047.4941,844.4878 C1059.9741,852.4178 1068.19,859.3 1078,871 C1104.18,902.23 1111.62,920.95 1100,960 C1089.88,994.01 1059.02,1021.63 1034.99,1038.78" fill="none" id="m4_show_step-backto-m4_next_show" style="stroke:#2F3B52;stroke-width:1;"/><polygon fill="#2F3B52" points="1042.43,841.27,1047.881,849.4729,1046.6501,843.9515,1052.1714,842.7207,1042.43,841.27" style="stroke:#2F3B52;stroke-width:1;"/><text fill="#000000" font-family="sans-serif" font-size="13" lengthAdjust="spacing" textLength="107.0551" x="1106.32" y="945.397">fim_show_seq = 0</text></g><!--link m4_next_show to m4_wait_input--><g class="link" data-entity-1="ent0020" data-entity-2="ent0021" data-link-type="dependency" data-source-line="109" id="lnk50"><path d="M1004,1079.32 C1004,1101 1004,1129.96 1004,1151.65" fill="none" id="m4_next_show-to-m4_wait_input" style="stroke:#2F3B52;stroke-width:1;"/><polygon fill="#2F3B52" points="1004,1157.65,1008,1148.65,1004,1152.65,1000,1148.65,1004,1157.65" style="stroke:#2F3B52;stroke-width:1;"/><text fill="#000000" font-family="sans-serif" font-size="13" lengthAdjust="spacing" textLength="107.0551" x="1005" y="1123.897">fim_show_seq = 1</text></g><!--link m4_next_input to d_m4_input--><g class="link" data-entity-1="ent0024" data-entity-2="ent0034" data-link-type="dependency" data-source-line="111" id="lnk51"><path d="M1247.07,484.45 C1305.69,512.91 1405.6621,561.4504 1434.9021,575.6404" fill="none" id="m4_next_input-to-d_m4_input" style="stroke:#2F3B52;stroke-width:1;"/><polygon fill="#2F3B52" points="1440.3,578.26,1433.9495,570.732,1435.8017,576.077,1430.4567,577.9292,1440.3,578.26" style="stroke:#2F3B52;stroke-width:1;"/></g><!--link d_m4_input to m4_round_fail--><g class="link" data-entity-1="ent0034" data-entity-2="ent0027" data-link-type="dependency" data-source-line="112" id="lnk52"><path d="M1444.28,591.38 C1437.74,604.13 1423.5,630.92 1409,652 C1402.03,662.13 1397.3663,668.1918 1389.9763,676.9618" fill="none" id="d_m4_input-to-m4_round_fail" style="stroke:#2F3B52;stroke-width:1;"/><polygon fill="#2F3B52" points="1386.11,681.55,1394.9682,677.2451,1389.3319,677.7265,1388.8506,672.0901,1386.11,681.55" style="stroke:#2F3B52;stroke-width:1;"/><text fill="#000000" font-family="sans-serif" font-size="13" lengthAdjust="spacing" textLength="55.003" x="1421.64" y="647.897">erro &gt;= 3</text></g><!--link d_m4_input to m4_vitoria_final--><g class="link" data-entity-1="ent0034" data-entity-2="ent0028" data-link-type="dependency" data-source-line="113" id="lnk53"><path d="M1439.25,586.89 C1426.84,590.91 1403.38,598.24 1383,603 C1308.29,620.46 1271.85,583.77 1213,633 C1198.62,645.02 1193.4989,660.172 1190.9089,675.672" fill="none" id="d_m4_input-to-m4_vitoria_final" style="stroke:#2F3B52;stroke-width:1;"/><polygon fill="#2F3B52" points="1189.92,681.59,1195.3486,673.3723,1190.7441,676.6584,1187.458,672.0538,1189.92,681.59" style="stroke:#2F3B52;stroke-width:1;"/><text fill="#000000" font-family="sans-serif" font-size="13" lengthAdjust="spacing" textLength="186.3032" x="1214" y="647.897">fim_input_seq &amp;&amp; seq_no_max</text></g><!--link d_m4_input to m4_round_ok--><g class="link" data-entity-1="ent0034" data-entity-2="ent0025" data-link-type="dependency" data-source-line="114" id="lnk54"><path d="M1453.09,590.21 C1460.56,599.39 1474.79,617.19 1486,633 C1497.39,649.06 1506.2964,662.8043 1514.9164,676.5743" fill="none" id="d_m4_input-to-m4_round_ok" style="stroke:#2F3B52;stroke-width:1;"/><polygon fill="#2F3B52" points="1518.1,681.66,1516.715,671.909,1515.447,677.4219,1509.9341,676.1539,1518.1,681.66" style="stroke:#2F3B52;stroke-width:1;"/><text fill="#000000" font-family="sans-serif" font-size="13" lengthAdjust="spacing" textLength="189.8002" x="1499.57" y="647.897">fim_input_seq &amp;&amp; !seq_no_max</text></g><!--link d_m4_input to m4_wait_input--><g class="link" data-entity-1="ent0034" data-entity-2="ent0021" data-link-type="dependency" data-source-line="115" id="lnk55"><path d="M1459.86,583.74 C1497.41,583.45 1616.09,586.47 1698,633 C1733.3,653.05 1759,660.4 1759,701 C1759,701 1759,701 1759,1060 C1759,1130.8 1239.8614,1164.558 1065.5114,1173.928" fill="none" id="d_m4_input-to-m4_wait_input" style="stroke:#2F3B52;stroke-width:1;"/><polygon fill="#2F3B52" points="1059.52,1174.25,1068.7217,1177.7613,1064.5128,1173.9817,1068.2924,1169.7728,1059.52,1174.25" style="stroke:#2F3B52;stroke-width:1;"/><text fill="#000000" font-family="sans-serif" font-size="13" lengthAdjust="spacing" textLength="162.0452" x="1760" y="885.897">!fim_input_seq &amp;&amp; erro &lt; 3</text></g><!--link m4_round_ok to m4_add_len--><g class="link" data-entity-1="ent0025" data-entity-2="ent0026" data-link-type="dependency" data-source-line="117" id="lnk56"><path d="M1507.54,722.32 C1482.34,744 1446.2483,775.0468 1421.0383,796.7368" fill="none" id="m4_round_ok-to-m4_add_len" style="stroke:#2F3B52;stroke-width:1;"/><polygon fill="#2F3B52" points="1416.49,800.65,1425.9212,797.8124,1420.2802,797.389,1420.7036,791.748,1416.49,800.65" style="stroke:#2F3B52;stroke-width:1;"/><text fill="#000000" font-family="sans-serif" font-size="13" lengthAdjust="spacing" textLength="133.6921" x="1471.14" y="766.897">timeout_resultado = 1</text></g><!--reverse link m4_add_step to m4_add_len--><g class="link" data-entity-1="ent0017" data-entity-2="ent0026" data-link-type="dependency" data-source-line="118" id="lnk58"><path d="M1075.3845,723.9223 C1150.1945,746.4823 1267.41,781.83 1338.51,803.27" fill="none" id="m4_add_step-backto-m4_add_len" style="stroke:#2F3B52;stroke-width:1;"/><polygon fill="#2F3B52" points="1069.64,722.19,1077.1018,728.6181,1074.4271,723.6336,1079.4116,720.9588,1069.64,722.19" style="stroke:#2F3B52;stroke-width:1;"/></g><!--reverse link rst_pontos to m4_round_fail--><g class="link" data-entity-1="ent0005" data-entity-2="ent0027" data-link-type="dependency" data-source-line="119" id="lnk60"><path d="M924.1927,476.5706 C967.5427,485.2706 1023.25,497.69 1076,514 C1133.01,531.63 1167.38,513.7 1201,563 C1218.71,588.96 1196.03,601.98 1191,633 C1189.65,641.34 1185.88,645.28 1191,652 C1206.54,672.4 1272.19,686.44 1319.24,694.1" fill="none" id="rst_pontos-backto-m4_round_fail" style="stroke:#2F3B52;stroke-width:1;"/><polygon fill="#2F3B52" points="918.31,475.39,926.347,481.0827,923.2122,476.3738,927.9211,473.2391,918.31,475.39" style="stroke:#2F3B52;stroke-width:1;"/><text fill="#000000" font-family="sans-serif" font-size="13" lengthAdjust="spacing" textLength="133.6921" x="1208.65" y="588.397">timeout_resultado = 1</text></g><!--reverse link rst_pontos to m4_vitoria_final--><g class="link" data-entity-1="ent0005" data-entity-2="ent0028" data-link-type="dependency" data-source-line="120" id="lnk62"><path d="M924.4005,474.3727 C971.3905,482.5827 1027.86,495.53 1045,514 C1072.4,543.51 1040.98,568.65 1062,603 C1083.19,637.63 1121.39,664.72 1150.2,681.55" fill="none" id="rst_pontos-backto-m4_vitoria_final" style="stroke:#2F3B52;stroke-width:1;"/><polygon fill="#2F3B52" points="918.49,473.34,926.6673,478.8293,923.4154,474.2006,928.0441,470.9487,918.49,473.34" style="stroke:#2F3B52;stroke-width:1;"/><text fill="#000000" font-family="sans-serif" font-size="13" lengthAdjust="spacing" textLength="133.6921" x="1063" y="588.397">timeout_resultado = 1</text></g><!--link reg_cor_alvo to m4_game_init--><!--link compara_cor to fim_perto--><?plantuml-src bPPBRzms483l_1Lq0WH9WKMpZm39mZOGEwjUYXvw3GA15cajOqbKHSfsqVI_T_WczKYJqovdlXaEoNdep2d3hEtLtvWoMGsyLrnqI8aUAu7lX5AYnPGFh39o91zurvE1j5WgeXZ-1s5yGwg7UX1ZHsz58mRyidXVV2W-QeqOA1kST5ViRzxjGFfn6CJJL5Y8Jlr1MWPQJXeqTtjvUKSakxx6Bq-tfwBOBX7jRWy04FjYLtnQ90m08HR5_lHsaJXOulI-U7Vwi4JSyzRiKjoU3gTRz2_SYhaBtl4AOiS-KYT-8Ld3AY9mAwXuWOd482ZrOaOEhEPI3IIY89cWaPLCuHwkRIJWtT9IbLeY97QNCVDSmQsJvZ5w1q6f1LCB9di6lE8j4wCok1MLJeJjRQA90UICYyRXTwfRFwYXyP-_tOHuXlfkqQGTAS6_dpu5M0iqFIChqUeKrKSre5lhaywl4HuJisUYRCYmAiqAksTECJXDWfdL4jQ8hcO1Cwj5RsHGd9Bepwu36ivzq8cby5THsytRGrb3ePH6QlCrOGc591GT0VzI1WD2QIaLw-TyAymxPBGyYwSLl2PzHi5w3lM3UCPQxT6EFIl3prcNDT1LN981_aIuAerapeVC2MbmAFEqcHvGvqq29scp57OMY8bxBH112NWM3o4AtI9AyR3m9cFBEaLmmxhqGM2vwlQUy2Pth2Lp_94h0GqJCgWZmS09IoFqDiw8-dPIdGMlOjNGfAndAbzH2oe6eK7VM5H1dr-IGuJ-JeCEVVxb2zvihaCJFMBJu91VQvtlct0Mtq6rEFJ88-x7HWhB1EbtB6bk1oL61aIZFkbWHooj_0g_JP6avGRaGZCeqVWeGwzDqVsKp0eysNUFCX_s0ExL48eFc4JkHOcNtJAPdV52OsZYOz6j_wTFlCvRvv7T1kTQus_7b_1Hzpee0fGApSMuqaMXXlCzSgzKF7MWJhl_4LRTFHzQUEQypxXxNmnZ8dTe32RfAKuN7K-t-P-WKAhOZBrvOYT3iGwj9czGMQ9CqLYdUUQXgB1WEecE-BLbhxQ_xjxWLw_mQw9uL_En39yTPKkUyRTlkE9L8ygEFp8kpTuDK-BDpBrh2aVus6m9Xz5Cf90c2YtUk03i13vY8xoo1PS1TlOwuDASDzFReUlqr-QWqUz2CRhCX6UMOwE8kSGjYZlzb8dT_ETsSJS-QoXfNq9PN_2Pb0ntb0xwH1_6ESfc-sQYXUrqB6vGwrlFyOb3FVad5bkKAZShiFwVUZTiT1w_5N83upmgGmbCuxThzfVV8p69coGbERFQ8fHNbfiKRcgXP83vhX47T9fpSp0Vp7Pd0vYjeS3Wf-nCKQrk0nyO2uONtxNCZdinCmvbXD9T9XcclrRMSZX1mhkaMPbSaDLdIRxgCx-k7xQSZCdFPqufwxuCl3whoNZD-wqdtS53_Vy7?></g></svg>